<svg xmlns="http://www.w3.org/2000/svg" viewBox="0 0 18 22" role="img">
  <path fill="#111111" d="M14.87 11.71c-.03-2.35 1.92-3.49 2.01-3.55-1.1-1.6-2.8-1.82-3.39-1.84-1.43-.15-2.82.86-3.55.86-.75 0-1.88-.84-3.1-.82-1.57.02-3.05.94-3.85 2.37-1.66 2.88-.42 7.1 1.17 9.43.8 1.14 1.72 2.42 2.94 2.37 1.19-.05 1.63-.76 3.07-.76 1.43 0 1.84.76 3.08.73 1.28-.02 2.09-1.14 2.86-2.29.92-1.31 1.29-2.61 1.3-2.68-.03-.01-2.51-.96-2.54-3.82zM12.56 4.8c.64-.8 1.08-1.88.96-2.98-.93.04-2.1.65-2.77 1.43-.6.69-1.14 1.81-1 2.87 1.05.08 2.14-.53 2.81-1.32z"/>
</svg>
