<svg xmlns="http://www.w3.org/2000/svg" viewBox="0 0 24 24" aria-hidden="true">
  <rect width="24" height="24" rx="12" fill="#010101"/>
  <path fill="#25F4EE" d="M15.43 5.1c.28 1.85 1.32 3.1 3.1 3.45v2.2a6 6 0 0 1-3.05-.9v4.67c0 3.17-2.08 5.1-4.88 5.1a4.58 4.58 0 0 1-4.5-4.6c0-2.93 2.46-4.98 5.36-4.44v2.34c-1.3-.42-2.86.36-2.86 2.03 0 1.18.88 2.12 2.1 2.12 1.38 0 2.25-.84 2.25-2.64V5.1h2.48Z"/>
  <path fill="#FE2C55" d="M16.1 4.38c.28 1.85 1.32 3.1 3.1 3.45v2.2a6 6 0 0 1-3.05-.9v4.67c0 3.17-2.08 5.1-4.88 5.1a4.58 4.58 0 0 1-4.5-4.6c0-2.93 2.46-4.98 5.36-4.44v2.34c-1.3-.42-2.86.36-2.86 2.03 0 1.18.88 2.12 2.1 2.12 1.38 0 2.25-.84 2.25-2.64V4.38h2.48Z"/>
  <path fill="#fff" d="M15.78 4.72c.28 1.85 1.32 3.1 3.1 3.45v2.2a6 6 0 0 1-3.05-.9v4.67c0 3.17-2.08 5.1-4.88 5.1a4.58 4.58 0 0 1-4.5-4.6c0-2.93 2.46-4.98 5.36-4.44v2.34c-1.3-.42-2.86.36-2.86 2.03 0 1.18.88 2.12 2.1 2.12 1.38 0 2.25-.84 2.25-2.64V4.72h2.48Z"/>
</svg>
