<?xml version="1.0" encoding="utf-8"?>
<!-- Generator: Adobe Illustrator 24.0.2, SVG Export Plug-In . SVG Version: 6.00 Build 0)  -->
<svg version="1.1" id="Layer_1" xmlns="http://www.w3.org/2000/svg" xmlns:xlink="http://www.w3.org/1999/xlink" x="0px" y="0px"
	 viewBox="0 0 4169 3563" style="enable-background:new 0 0 4169 3563;" xml:space="preserve">
<style type="text/css">
	.st0{fill:#012269;}
	.st1{fill:#AC1411;}
</style>
<g>
	<ellipse class="st0" cx="1619.6" cy="828.9" rx="359.3" ry="378.3"/>
	<path class="st1" d="M2949.4,1096.1c10.3-51.4,51.4-86.5,91.8-78.4c40.4,8.1,64.9,56.3,54.7,107.6c-10.3,51.4-51.4,86.4-91.8,78.4
		C2963.6,1195.6,2939.2,1147.4,2949.4,1096.1z"/>
	<path class="st1" d="M3386.1,1474.3c-40.5-8.1-81.6,27-91.8,78.4c-10.3,51.4,14.2,99.5,54.7,107.6c40.4,8.1,81.6-27,91.8-78.4
		C3451,1530.6,3426.5,1482.4,3386.1,1474.3z M3386.1,1474.3c-40.5-8.1-81.6,27-91.8,78.4c-10.3,51.4,14.2,99.5,54.7,107.6
		c40.4,8.1,81.6-27,91.8-78.4C3451,1530.6,3426.5,1482.4,3386.1,1474.3z M3866.3,529.1c1-1.1,0.2-2.9-1.3-2.9
		c-346.1-2.2-629.3,80.5-1055.4,243.8c-394.4,151.2-699,213.9-744.2,222.7c-1.7,0.3-1.9,2.7-0.3,3.3l534.1,211.1c0,0,0.1,0,0.1,0
		c245.9,112.8,177.5,368.4,177.5,368.4c-51.9,164-210.6,529.5-219.9,550.8c-0.3,0.6-0.2,1.3,0.3,1.8l349.3,411
		c0.5,0.5,1.2,0.7,1.9,0.5c410.1-137.3,743.2-583.7,837.2-799.5c93.4-214.5-2.9-504.9-4.3-508.9c0,0,0-0.1,0-0.1
		C3626.8,811.4,3840,558.3,3866.3,529.1z M2846.1,1098.7c7-98.9,91.6-173.4,188.9-166.5c97.3,6.9,170.4,92.7,163.4,191.5
		c-7,98.9-91.6,173.4-188.8,166.5C2912.3,1283.3,2839.1,1197.6,2846.1,1098.7z M2932,1672.7l-36.5-5c-20.3-2.8-29.4-27-16-42.5
		l531.6-615.2c5.3-6.1,13.1-9.5,21.2-9l59.7,3.2c19.7,1,29.6,24.3,16.8,39.3l-523.2,609C2972.3,1667.8,2952.1,1675.5,2932,1672.7z
		 M3543.2,1580.3c-7,98.9-91.6,173.4-188.8,166.5c-97.3-6.9-170.4-92.7-163.4-191.5c7-98.9,91.6-173.4,188.8-166.5
		C3477.1,1395.7,3550.2,1481.5,3543.2,1580.3z M3386.1,1474.3c-40.5-8.1-81.6,27-91.8,78.4c-10.3,51.4,14.2,99.5,54.7,107.6
		c40.4,8.1,81.6-27,91.8-78.4C3451,1530.6,3426.5,1482.4,3386.1,1474.3z"/>
	<path class="st1" d="M3095.9,1125.3c-10.3,51.4-51.4,86.4-91.8,78.4c-40.4-8.1-64.9-56.3-54.7-107.6c10.3-51.4,51.4-86.5,91.8-78.4
		C3081.7,1025.8,3106.2,1073.9,3095.9,1125.3z"/>
	<path class="st1" d="M3095.9,1125.3c-10.3,51.4-51.4,86.4-91.8,78.4c-40.4-8.1-64.9-56.3-54.7-107.6c10.3-51.4,51.4-86.5,91.8-78.4
		C3081.7,1025.8,3106.2,1073.9,3095.9,1125.3z"/>
	<path class="st1" d="M3440.7,1581.9c-10.3,51.4-51.4,86.5-91.8,78.4c-40.4-8.1-64.9-56.3-54.7-107.6c10.3-51.4,51.4-86.4,91.8-78.4
		C3426.5,1482.4,3451,1530.6,3440.7,1581.9z"/>
	<path class="st1" d="M3440.7,1581.9c-10.3,51.4-51.4,86.5-91.8,78.4c-40.4-8.1-64.9-56.3-54.7-107.6c10.3-51.4,51.4-86.4,91.8-78.4
		C3426.5,1482.4,3451,1530.6,3440.7,1581.9z"/>
	<path class="st0" d="M2034,1075.3l516.2,208.4c117.2,47.3,174.6,180.2,128.6,297.9l-181.1,463.7c-14.2,36.3-52.5,57.2-90.7,49.4
		c-40.2-8.2-67.8-45.4-63.9-86.2l37-391.3c3.2-33.3-16.4-64.7-47.8-76.4L2013,1420.9c-30.7-11.5-64.9,3.7-77,34.2
		c-12.6,31.9,3.9,67.8,36.3,79l275.6,95.2c10.5,3.6,17.3,13.9,16.5,25l-24.3,336.2c0,0-21.4,158.3,135.8,194.6
		c0,0,44.5,11.1,91.4-1.1c10.5-2.7,21.5,0.8,28.4,9.1l803.4,982c37.3,45.6,32.3,112.4-11.4,152c-41.7,37.8-105.1,38.2-147.3,1
		L2095,2407.5c-6.7-5.9-15.5-8.7-24.3-7.9l-388,37.6c-49.9,4.8-71,66.1-34.6,100.6l427.2,405c46.5,44.1,48.4,117.5,4.2,164
		c-39.5,41.5-103.5,47.9-150.4,15l-731.6-512.6c-133.9-93.8-111.6-298.5,39.4-361.2l436.4-181.3c36.3-15.1,52.1-57.7,34.6-92.8
		l-3.2-6.3L1365.3,1458L443.4,658.3c-51.9-45-57.5-123.5-12.5-175.4c40.6-46.9,109.6-56.7,161.6-23l555.6,359.9
		c8.5,5.5,13.7,14.9,13.8,25.1c1.2,91.1,29.4,183.4,78.7,259.8c93,144,259.6,227.9,430.6,207.9c141-16.4,255.4-102.5,325.2-224.3
		C2004,1075.2,2020,1069.6,2034,1075.3z"/>
</g>
</svg>
