<?xml version="1.0" encoding="utf-8"?>
<!-- Generator: Adobe Illustrator 24.0.2, SVG Export Plug-In . SVG Version: 6.00 Build 0)  -->
<svg version="1.1" id="Layer_2" xmlns="http://www.w3.org/2000/svg" xmlns:xlink="http://www.w3.org/1999/xlink" x="0px" y="0px"
	 viewBox="0 0 1190.9 894.6" style="enable-background:new 0 0 1190.9 894.6;" xml:space="preserve">
<style type="text/css">
	.st0{fill:#012C73;}
	.st1{fill:#023076;}
	.st2{fill:#C80811;}
</style>
<g>
	<path class="st0" d="M100.9,784.1c0.2-0.8,0.9-1.2,1.9-1.2c0.6,0,2.1,0.3,4.4,0.9c2.3,0.6,3.9,1.1,4.8,1.4c0.7,0.2,1.1,0.8,1.1,1.7
		l-0.1,0.6c-1.7,4.8-3.6,12.6-5.9,23.2c-2.3,10.6-3.9,20.8-5,30.5c-0.1,1-0.7,1.4-1.9,1.4c-1.3,0-3.4-0.3-6.4-0.9
		c-3-0.6-5-1.1-5.9-1.6c-1-0.4-1.7-1.2-2-2.2c-1.9-6.3-3.6-17-5.4-32.2c-0.1-0.5-0.3-0.7-0.4-0.7c-0.1,0-0.2,0.2-0.4,0.7
		c-2.4,11.3-4.3,23.1-5.7,35.5c-0.1,1-0.6,1.4-1.5,1.4c-0.8,0-2.3-0.3-4.3-0.8c-2-0.5-3.5-1-4.4-1.4c-1-0.5-1.5-1.3-1.5-2.3
		c0.2-6.4,1.6-15.9,4.1-28.5c2.5-12.6,4.7-21.1,6.4-25.4c0.4-0.8,1-1.3,2.1-1.3c1.1,0,3.3,0.3,6.6,1c3.3,0.7,5.4,1.1,6.1,1.4
		c1.1,0.4,1.7,1.2,1.8,2.3c0.4,2.6,1,7.6,1.8,15.1c0.8,7.5,1.4,12.2,1.6,14c0.1,0.4,0.2,0.6,0.4,0.6c0.2,0,0.3-0.2,0.4-0.6
		C96.1,800.6,98.6,789.6,100.9,784.1z"/>
	<path class="st0" d="M121.3,841.2c-0.2,1-0.7,1.5-1.7,1.5c-0.7,0-2.2-0.3-4.4-0.9c-2.2-0.6-3.7-1.1-4.6-1.4c-1-0.4-1.4-1.1-1.4-2.1
		c0-3.6,0.8-10.2,2.5-19.6c1.6-9.4,3.1-16.1,4.3-19.9c0.3-1,1-1.4,2.1-1.4c0.7,0,2,0.3,4.2,0.8c2.1,0.5,3.8,1,5.1,1.5
		c0.8,0.3,1.3,0.8,1.3,1.6l-0.1,0.6C125.2,816.1,122.8,829.3,121.3,841.2z M123.5,778c2.4,0,4.6,0.6,6.6,1.9
		c1.9,1.3,2.9,3.1,2.9,5.6c0,2.4-0.8,4.3-2.4,5.9c-1.6,1.5-3.7,2.3-6.3,2.3c-2.4,0-4.3-0.7-5.6-2.1c-1.3-1.4-1.9-3.3-1.9-5.5
		c0-2.6,1.3-5,3.9-7.1C121.5,778.3,122.4,778,123.5,778z"/>
	<path class="st0" d="M130.6,814.4c0-3.8,1.4-7.7,4.3-11.6c2.9-3.9,6.1-5.9,9.6-5.9c1.9,0,4.3,0.4,7.3,1.3c3,0.9,5.8,2.3,8.5,4.1
		c2.7,1.8,4,3.7,4,5.8c0,1-0.3,2.3-0.9,3.7c-0.6,1.5-1.1,2.5-1.6,3.2c-0.5,0.8-1.3,1.2-2.4,1.3h-6.7c-0.9,0-1.3-0.4-1.3-1.2
		c0-0.2,0.1-0.9,0.4-2.1c0.3-1.2,0.4-2.1,0.4-2.8c0-2.4-0.8-3.7-2.4-3.7c-1.4,0-2.7,0.9-3.9,2.7c-1.2,1.8-1.8,3.4-1.8,4.7
		c0,1.1,0.6,2.1,1.7,2.9c1.2,0.8,2.6,1.5,4.3,2.1c1.7,0.6,3.3,1.3,5,2c1.7,0.7,3.1,1.8,4.3,3.1c1.2,1.3,1.7,3,1.7,4.9
		c0,3.4-1.5,6.6-4.5,9.5c-3,2.9-6.7,4.3-11,4.3c-2.7,0-5.7-0.5-9-1.6c-3.3-1.1-5.7-2.3-7.1-3.6c-0.7-0.6-1-1.2-1-1.8
		c0-0.6,0.2-1.7,0.6-3.2c0.4-1.6,0.8-2.7,1.3-3.6c0.3-0.7,0.7-1.1,1.3-1.1c0.2,0,0.4,0.1,0.6,0.2c0.2,0.1,0.4,0.2,0.4,0.2
		c5,2.7,8.7,4,11.2,4c2.6,0,3.9-0.7,4.1-2.2c0-0.8-0.9-1.6-2.7-2.5c-1.8-0.9-3.8-1.7-6-2.5c-2.2-0.8-4.2-2.2-6-4.1
		C131.5,819.3,130.6,817,130.6,814.4z"/>
	<path class="st0" d="M192,819.2c-0.5,0.4-0.8,0.9-0.8,1.3c0,0.2,0.1,0.5,0.4,0.9c3.4,5.6,6.6,9.8,9.5,12.6c0.4,0.4,0.6,0.9,0.6,1.3
		c0,0.4-0.1,0.8-0.4,1.1c-2.6,2.6-5.5,4.5-8.7,5.9c-0.4,0.2-0.8,0.3-1.2,0.3c-0.7,0-1.3-0.2-1.8-0.7c-2.6-2.6-5.3-7.4-7.9-14.6
		c-0.4-1.1-0.8-1.7-1.4-1.7c-0.8,0-1.3,0.6-1.4,1.7c-0.9,5.7-1.6,10.3-2,13.8c-0.1,1-0.7,1.4-1.6,1.4c-0.8,0-2.2-0.3-4.4-0.9
		c-2.1-0.6-3.6-1.1-4.5-1.4c-1-0.4-1.4-1.2-1.4-2.4c0.2-6.7,1.7-16.7,4.4-29.8c2.7-13.1,5-21.9,7-26.4c0.3-0.8,0.9-1.3,1.9-1.3
		c0.6,0,2.1,0.3,4.6,1c2.4,0.7,4.1,1.2,4.9,1.6c0.8,0.2,1.2,0.8,1.2,1.7l-0.3,1c-2.3,6.3-4.7,15.6-7.3,28c-0.1,0.2-0.1,0.4-0.1,0.5
		c0,0.5,0.2,0.8,0.6,0.8c0.4,0,1-0.5,1.9-1.4c5.7-6.6,10.1-11.8,13-15.4c0.4-0.5,0.8-0.7,1.4-0.7l1,0.4c2.5,1.7,4.7,3.9,6.7,6.5
		c0.2,0.3,0.4,0.7,0.4,1.2c0,0.5-0.2,1-0.7,1.4L192,819.2z"/>
	<path class="st0" d="M219.4,825.4c0,1.4,0.5,2.7,1.5,3.9c1,1.2,2.3,1.8,3.8,1.8c2.9,0,5.9-0.9,9-2.7c0.2-0.1,0.5-0.2,0.7-0.2
		c0.5,0,1,0.3,1.3,0.9c1.6,2.9,2.3,4.8,2.3,5.9c0,0.9-0.3,1.6-0.9,2.2c-4.1,3.6-8.3,5.5-12.5,5.5c-1.9,0-4.4-0.6-7.5-1.9
		c-3.2-1.3-5.5-2.9-7.1-4.8c-2.4-3.1-3.7-7-3.7-11.8c0-3.8,0.8-7.8,2.3-12c1.5-4.2,3.8-7.8,6.7-10.9c3-3.1,6.1-4.6,9.5-4.6
		c1.7,0,4.2,0.7,7.7,2.2c3.4,1.5,5.9,3,7.5,4.6c1.5,1.5,2.2,3.7,2.2,6.6c0,3.8-1.6,7.1-4.7,10.1c-3.1,3-7.3,4.4-12.5,4.4
		c-0.7,0-1.6-0.1-2.8-0.2c-1.2-0.1-1.9-0.2-2.1-0.2C219.8,824.4,219.4,824.7,219.4,825.4z M228.2,806.4c-1.3,0-2.8,1.3-4.6,3.8
		c-1.7,2.5-2.6,4.5-2.6,5.8c0,0.7,0.4,1.1,1.2,1.1c2.4,0,4.3-0.8,5.9-2.5c1.5-1.6,2.3-3.3,2.3-5
		C230.4,807.5,229.6,806.4,228.2,806.4z"/>
	<path class="st0" d="M280.9,818.1c-0.9-0.1-1.3-0.6-1.3-1.3c0-0.2,0.2-1.2,0.6-3c0.4-1.8,0.6-3.1,0.6-3.7c0-1.9-0.6-2.8-1.7-2.8
		c-2,0-4,1.9-6,5.6c-2,3.7-3,7.4-3,11.1c0,2.2,0.5,3.9,1.4,5.2c0.9,1.3,2.2,1.9,3.9,1.9c2.9,0,5.9-0.9,9-2.7
		c0.2-0.1,0.5-0.2,0.7-0.2c0.5,0,1,0.3,1.3,0.9c1.6,2.9,2.3,4.9,2.3,6.1c0,0.9-0.3,1.6-0.9,2.2c-4.1,3.6-8.3,5.5-12.5,5.5
		c-1.9,0-4.4-0.6-7.5-1.9c-3.2-1.3-5.5-2.9-7.1-4.8c-2.4-3.1-3.7-7-3.7-11.8c0-6.6,1.9-12.8,5.6-18.7c3.7-5.9,8-8.8,12.9-8.8
		c2.6,0,6.1,1.2,10.6,3.6c4.5,2.4,6.7,5.2,6.7,8.4c0,1-0.3,2.4-0.9,4.1c-0.6,1.7-1.2,3-1.7,3.8c-0.5,0.8-1.2,1.3-2.1,1.3
		C287.2,818.1,284.8,818.1,280.9,818.1z"/>
	<path class="st0" d="M307.5,825.4c0,1.4,0.5,2.7,1.5,3.9c1,1.2,2.3,1.8,3.8,1.8c2.9,0,5.9-0.9,9-2.7c0.2-0.1,0.5-0.2,0.7-0.2
		c0.5,0,1,0.3,1.3,0.9c1.6,2.9,2.3,4.8,2.3,5.9c0,0.9-0.3,1.6-0.9,2.2c-4.1,3.6-8.3,5.5-12.5,5.5c-1.9,0-4.4-0.6-7.5-1.9
		c-3.2-1.3-5.5-2.9-7.1-4.8c-2.4-3.1-3.7-7-3.7-11.8c0-3.8,0.8-7.8,2.3-12c1.5-4.2,3.8-7.8,6.7-10.9c3-3.1,6.1-4.6,9.5-4.6
		c1.7,0,4.2,0.7,7.7,2.2c3.4,1.5,5.9,3,7.5,4.6c1.5,1.5,2.2,3.7,2.2,6.6c0,3.8-1.6,7.1-4.7,10.1c-3.1,3-7.3,4.4-12.5,4.4
		c-0.7,0-1.6-0.1-2.8-0.2c-1.2-0.1-1.9-0.2-2.1-0.2C307.8,824.4,307.5,824.7,307.5,825.4z M316.3,806.4c-1.3,0-2.8,1.3-4.6,3.8
		c-1.7,2.5-2.6,4.5-2.6,5.8c0,0.7,0.4,1.1,1.2,1.1c2.4,0,4.3-0.8,5.9-2.5c1.5-1.6,2.3-3.3,2.3-5
		C318.4,807.5,317.7,806.4,316.3,806.4z"/>
	<path class="st0" d="M350.5,805c4.2-5.3,7.8-8,10.9-8c2.2,0,4.6,1.3,7.1,3.8c2.5,2.5,3.8,4.9,3.8,7.2c0,2.1-0.7,6.9-2.1,14.3
		c-1.4,7.5-2.7,13.8-4.1,18.9c-0.4,1-1,1.4-1.9,1.4c-1,0-2.5-0.4-4.5-1.1c-2.1-0.7-3.7-1.4-4.8-2c-0.7-0.4-1.1-1.1-1.1-2.1l0.1-0.8
		c3-12.5,4.6-20.7,4.6-24.5c0-1.7-0.3-2.5-0.9-2.5c-0.7,0-1.9,0.5-3.5,1.6s-3.2,2.4-4.7,4c-0.8,0.8-1.2,1.7-1.5,2.9
		c-2.7,13.4-4.2,21-4.7,23c-0.3,0.9-0.9,1.4-1.9,1.4c-1,0-2.6-0.3-4.8-1c-2.2-0.7-3.7-1.2-4.5-1.6c-0.8-0.4-1.2-1.1-1.2-2
		c0-0.2,0.5-3,1.4-8.5c0.9-5.5,1.9-11.5,3-18.1c1.1-6.6,1.8-10.9,2.1-13c0.2-1,0.8-1.5,1.8-1.5c0.6,0,2,0.2,4.2,0.6
		c2.2,0.4,3.7,0.8,4.4,1.2c1.1,0.5,1.6,1.3,1.6,2.4c0,0.2,0,0.8,0,1.6c0,0.8,0,1.5,0,2c0,0.5,0.1,0.8,0.4,0.8L350.5,805z"/>
	<path class="st0" d="M387.6,825.4c0,1.4,0.5,2.7,1.5,3.9c1,1.2,2.3,1.8,3.8,1.8c2.9,0,5.9-0.9,9-2.7c0.2-0.1,0.5-0.2,0.7-0.2
		c0.5,0,1,0.3,1.3,0.9c1.6,2.9,2.3,4.8,2.3,5.9c0,0.9-0.3,1.6-0.9,2.2c-4.1,3.6-8.3,5.5-12.5,5.5c-1.9,0-4.4-0.6-7.5-1.9
		c-3.2-1.3-5.5-2.9-7.1-4.8c-2.4-3.1-3.7-7-3.7-11.8c0-3.8,0.8-7.8,2.3-12c1.5-4.2,3.8-7.8,6.7-10.9c3-3.1,6.1-4.6,9.5-4.6
		c1.7,0,4.2,0.7,7.7,2.2c3.4,1.5,5.9,3,7.5,4.6c1.5,1.5,2.2,3.7,2.2,6.6c0,3.8-1.6,7.1-4.7,10.1c-3.1,3-7.3,4.4-12.5,4.4
		c-0.7,0-1.6-0.1-2.8-0.2c-1.2-0.1-1.9-0.2-2.1-0.2C387.9,824.4,387.6,824.7,387.6,825.4z M396.3,806.4c-1.3,0-2.8,1.3-4.6,3.8
		c-1.7,2.5-2.6,4.5-2.6,5.8c0,0.7,0.4,1.1,1.2,1.1c2.4,0,4.3-0.8,5.9-2.5c1.5-1.6,2.3-3.3,2.3-5
		C398.5,807.5,397.8,806.4,396.3,806.4z"/>
	<path class="st0" d="M430.3,802.1c5.5-3.6,11.3-5.5,17.4-5.5c3,0,6.6,2.1,10.8,6.3c4.2,4.2,6.4,8,6.4,11.3c0,7.5-2,14.1-6.1,19.8
		c-4.1,5.7-9,8.6-14.7,8.6c-2,0-4.1-0.9-6.3-2.7c-0.2-0.2-0.5-0.3-0.7-0.3c-0.5,0-0.8,0.3-0.9,0.9c-1.4,8.8-2.2,14-2.4,15.7
		c-0.1,1-0.7,1.4-1.6,1.4c-0.6,0-1.9-0.3-4-0.9c-2.1-0.6-3.6-1.1-4.7-1.6c-0.9-0.4-1.3-1.2-1.3-2.2l0.1-1.1
		c1.2-12.3,3.6-26.5,7.2-42.5c0.1-0.6,0.2-1.1,0.2-1.5c0-0.4-0.1-1-0.3-2.1c-0.2-1-0.3-1.6-0.3-1.7
		C429,803.4,429.4,802.7,430.3,802.1z M440.7,831.7c2.2,0,4.2-0.9,6-2.8c1.8-1.9,3.1-4,3.9-6.5c0.8-2.4,1.3-4.8,1.3-7.2
		c0-2.4-0.6-4.3-1.9-5.5c-1.3-1.2-2.8-1.8-4.7-1.8c-1.3,0-2.1,0.6-2.4,1.7c-0.7,2.4-1.6,6.2-2.8,11.5c-1.2,5.3-1.8,8.1-1.8,8.6
		c0,0.6,0.3,1.1,0.8,1.4C439.5,831.5,440.1,831.7,440.7,831.7z"/>
	<path class="st0" d="M505.8,814.5v0.4c0,2.3-0.3,4.9-1,7.8c-0.7,2.9-1.7,5.9-3.1,9c-1.4,3.1-3.4,5.7-6,7.8c-2.6,2.1-5.6,3.2-9,3.2
		c-2.3,0-5.1-0.6-8.2-1.8c-3.1-1.2-5.7-2.8-7.6-4.8c-2.5-2.7-3.8-6.6-3.8-11.8c0-2.7,0.4-5.6,1.2-8.6c0.8-3.1,1.9-6.1,3.3-9
		s3.4-5.3,5.8-7.2c2.4-1.9,5.1-2.8,8.1-2.8c2.4,0,5.3,0.7,8.8,2.2c3.5,1.5,6.2,3.2,8.1,5.1C504.5,806.4,505.7,809.9,505.8,814.5z
		 M483.7,832.2c2.5,0,4.6-2.1,6.4-6.2c1.8-4.2,2.6-8.2,2.6-12.1c0-4.5-1.2-6.7-3.7-6.7c-2.3,0-4.4,2.2-6.3,6.5
		c-1.9,4.3-2.8,8.5-2.8,12.4C479.9,830.2,481.2,832.2,483.7,832.2z"/>
	<path class="st0" d="M541.4,781.7c0.4-0.8,1.1-1.3,2.1-1.3c0.8,0,2.4,0.3,4.8,1c2.4,0.7,4,1.2,4.6,1.6c0.7,0.4,1.1,1,1.1,1.7
		l-0.1,0.5c-1.7,5-3.8,12.9-6.3,23.9c-2.4,11-4.3,21.6-5.6,31.9c-0.1,1-0.7,1.4-1.6,1.4c-1.9,0-4.3-0.6-7.3-1.8
		c-1-0.4-1.5-1.2-1.5-2.3l-0.2-3c0-0.6-0.1-0.9-0.4-0.9c-0.2,0-0.4,0.2-0.6,0.4c-3.5,5.2-6.6,7.8-9.1,7.8c-3.2,0-6.2-1.7-9-5.1
		c-2.9-3.4-4.3-7.1-4.3-11.1c0-5,0.8-9.7,2.3-14.2c1.5-4.5,3.7-8.2,6.7-11.2c2.9-2.9,6.2-4.4,9.9-4.4c1.9,0,4.4,0.9,7.7,2.6
		c0.3,0.2,0.5,0.3,0.7,0.3c0.5,0,0.9-0.4,1.1-1.2C538.2,790.6,539.9,785,541.4,781.7z M530.1,825.8c0.7-0.6,1-1.3,1.2-2.1
		c1.8-8.5,2.7-13.1,2.7-13.8s-0.3-1.2-1-1.4c-1.3-0.5-2.4-0.7-3.1-0.7c-2.6,0-4.8,2.1-6.5,6.4c-1.7,4.3-2.6,8.3-2.6,12
		c0,2.9,0.5,4.4,1.4,4.4C524,830.6,526.6,829,530.1,825.8z"/>
	<path class="st0" d="M592.8,807.1c-0.2,1.1-0.9,1.6-2.1,1.6h-6.5c-1,0-1.6,0.5-1.9,1.6c-1.7,7.8-2.5,12.7-2.5,14.6
		c0,3.4,1.6,5.9,4.7,7.4c0.7,0.3,1,0.8,1,1.5c0,0.2-0.1,0.5-0.2,0.7c-1.4,3-2.9,5.4-4.5,7.2c-0.6,0.6-1.3,0.9-2.1,0.9l-1-0.2
		c-3.6-1.1-6.4-3.1-8.4-5.9c-2-2.8-3-6-3-9.5c0-1.7,0.2-4,0.6-6.8c0.4-2.8,0.8-5.3,1.3-7.4l0.6-3.2c0-0.7-0.3-1.1-1-1.1H567
		c-1,0-1.6-0.6-1.7-1.7v-3.7c0-1.7,0-2.9,0.1-3.6c0.1-1.2,0.7-1.8,1.9-1.9l3.1-0.3c0.8-0.1,1.4-0.6,1.7-1.7c1.6-5.8,2.9-10.1,4-12.9
		c0.3-0.8,0.9-1.3,1.8-1.3c2.3,0,5.5,0.9,9.4,2.6c0.8,0.3,1.2,0.8,1.2,1.5c0,0.5-0.5,2.3-1.4,5.2c-0.9,2.9-1.4,4.6-1.4,5
		c0,0.7,0.4,1.1,1.1,1.3c2.5,0,4.1,0,4.9,0.1c1.1,0.1,1.6,0.7,1.6,2.1v0.7C593.3,802.3,593.1,804.7,592.8,807.1z"/>
	<path class="st0" d="M611.5,803.8c3.6-4.3,6.7-6.5,9.3-6.5c0.8,0,1.4,0.5,1.6,1.4c0.1,0.7,0.1,1.9,0.1,3.8c0,1.9-0.1,4.4-0.2,7.6
		c0,1.1-0.6,1.7-1.7,1.9c-3.2,0.5-6.6,1.4-10.1,2.6c-0.9,0.3-1.5,1.1-1.9,2.3c-1.3,6.1-2.9,14.2-4.7,24.2c-0.2,1-0.8,1.4-1.7,1.4
		c-0.8,0-2.4-0.3-4.6-0.9c-2.2-0.6-3.8-1.2-4.7-1.7c-0.7-0.4-1.1-1-1.1-2.1l0.1-0.9l6.4-38.7c0.2-1,0.8-1.5,2-1.5
		c0.7,0,2.1,0.3,4.4,0.8c2.3,0.5,3.7,0.9,4.3,1.1c0.9,0.4,1.3,1.1,1.3,2.1l0.1,2.7c0,0.5,0.1,0.8,0.4,0.8
		C611,804.3,611.2,804.1,611.5,803.8z"/>
	<path class="st0" d="M648.5,840.9c-1-0.5-1.5-1.3-1.6-2.3l-0.3-3.8c0-0.5-0.1-0.7-0.4-0.7c-0.2,0-0.4,0.1-0.5,0.4
		c-3.5,5.5-6.6,8.2-9.5,8.2c-3.2,0-6.3-1.7-9.1-5c-2.9-3.3-4.3-7.1-4.3-11.2c0-5.1,0.7-9.9,2.2-14.3c1.5-4.5,3.8-8.2,6.8-11.1
		s6.5-4.3,10.5-4.3c2.2,0,5.3,0.8,9.1,2.3c3.9,1.5,7.4,3.3,10.7,5.4c0.7,0.4,1.1,1,1.1,1.9l-0.2,1c-3,10.8-4.7,22.1-5,33.8
		c-0.1,1-0.6,1.4-1.5,1.4c-1,0-2.5-0.2-4.4-0.7C650.2,841.5,649,841.2,648.5,840.9z M644.9,825.8c0.7-0.6,1-1.3,1.2-2.1
		c1.8-8.5,2.7-13.1,2.7-13.8s-0.3-1.2-1-1.4c-1.3-0.5-2.4-0.7-3.1-0.7c-2.6,0-4.8,2.1-6.5,6.4c-1.7,4.3-2.6,8.3-2.6,12
		c0,2.9,0.5,4.4,1.4,4.4C638.8,830.6,641.4,829,644.9,825.8z"/>
	<path class="st0" d="M665.8,858.7c-0.4,0.4-1,0.5-1.8,0.5c-0.4,0-0.9-0.1-1.3-0.4c-1.9-0.9-4.1-2.3-6.4-4.3
		c-0.2-0.2-0.4-0.5-0.4-0.9s0.2-0.7,0.6-1.2c3.2-2.6,5.3-6.3,6.4-10.9c0.5-2.8,1.8-10.1,3.9-22c2.1-11.8,3.3-18.8,3.7-20.9
		c0.2-1,0.8-1.5,2-1.5c2.1,0,5.2,0.5,9.1,1.5c1,0.3,1.4,1,1.4,2.1c0,1.6-1,7.5-2.9,17.9c-2,10.4-3.4,17.8-4.4,22.2
		C673.7,849.5,670.4,855.4,665.8,858.7z M677.5,778c2.4,0,4.6,0.6,6.6,1.9c1.9,1.3,2.9,3.1,2.9,5.6c0,2.4-0.8,4.3-2.4,5.9
		c-1.6,1.5-3.7,2.3-6.3,2.3c-2.4,0-4.3-0.7-5.6-2.1c-1.3-1.4-1.9-3.3-1.9-5.5c0-2.6,1.3-5,3.9-7.1C675.5,778.3,676.4,778,677.5,778z
		"/>
	<path class="st0" d="M702.1,805c4.2-5.3,7.8-8,10.9-8c2.2,0,4.6,1.3,7.1,3.8c2.5,2.5,3.8,4.9,3.8,7.2c0,2.1-0.7,6.9-2.1,14.3
		c-1.4,7.5-2.7,13.8-4.1,18.9c-0.4,1-1,1.4-1.9,1.4c-1,0-2.5-0.4-4.5-1.1c-2.1-0.7-3.7-1.4-4.8-2c-0.7-0.4-1.1-1.1-1.1-2.1l0.1-0.8
		c3-12.5,4.6-20.7,4.6-24.5c0-1.7-0.3-2.5-0.9-2.5c-0.7,0-1.9,0.5-3.5,1.6c-1.6,1.1-3.2,2.4-4.7,4c-0.8,0.8-1.2,1.7-1.5,2.9
		c-2.7,13.4-4.2,21-4.7,23c-0.3,0.9-0.9,1.4-1.9,1.4c-1,0-2.6-0.3-4.8-1c-2.2-0.7-3.7-1.2-4.5-1.6c-0.8-0.4-1.2-1.1-1.2-2
		c0-0.2,0.5-3,1.4-8.5s1.9-11.5,3-18.1c1.1-6.6,1.8-10.9,2.1-13c0.2-1,0.8-1.5,1.8-1.5c0.6,0,2,0.2,4.2,0.6c2.2,0.4,3.7,0.8,4.4,1.2
		c1.1,0.5,1.6,1.3,1.6,2.4c0,0.2,0,0.8,0,1.6c0,0.8,0,1.5,0,2c0,0.5,0.1,0.8,0.4,0.8L702.1,805z"/>
	<path class="st0" d="M765,814.5v0.4c0,2.3-0.3,4.9-1,7.8s-1.7,5.9-3.1,9c-1.4,3.1-3.4,5.7-6,7.8c-2.6,2.1-5.6,3.2-9,3.2
		c-2.3,0-5.1-0.6-8.2-1.8c-3.1-1.2-5.7-2.8-7.6-4.8c-2.5-2.7-3.8-6.6-3.8-11.8c0-2.7,0.4-5.6,1.2-8.6c0.8-3.1,1.9-6.1,3.3-9
		c1.4-2.9,3.4-5.3,5.8-7.2c2.4-1.9,5.1-2.8,8.1-2.8c2.4,0,5.3,0.7,8.8,2.2c3.5,1.5,6.2,3.2,8.1,5.1
		C763.7,806.4,764.9,809.9,765,814.5z M742.9,832.2c2.5,0,4.6-2.1,6.4-6.2c1.8-4.2,2.6-8.2,2.6-12.1c0-4.5-1.2-6.7-3.7-6.7
		c-2.3,0-4.4,2.2-6.3,6.5c-1.9,4.3-2.8,8.5-2.8,12.4C739.1,830.2,740.4,832.2,742.9,832.2z"/>
	<path class="st0" d="M806.9,805.4c4.1-5.6,7.6-8.3,10.6-8.3c2.2,0,4.6,1.3,7.2,3.9c2.6,2.6,3.9,5,3.9,7.2c0,2.1-0.7,7-2,14.5
		c-1.3,7.5-2.7,13.8-4.1,18.8c-0.2,0.9-0.9,1.3-1.9,1.3c-1,0-2.5-0.4-4.6-1.1c-2.1-0.7-3.7-1.4-4.7-2c-0.8-0.4-1.2-1-1.2-2l0.1-0.6
		c3.1-12.9,4.7-21.3,4.7-25.2c0-1.7-0.3-2.6-0.9-2.6c-0.7,0-1.8,0.4-3.3,1.3c-1.5,0.9-2.9,2.1-4.3,3.7c-0.6,0.6-1,1.6-1.3,2.9
		c-1.6,9.6-3.3,17.6-5.1,24.2c-0.2,0.9-0.8,1.3-1.8,1.3c-1,0-2.6-0.3-4.6-1s-3.7-1.3-4.9-1.9c-0.7-0.4-1.1-1-1.1-1.9l0.1-0.6
		c3.1-13,4.7-21.4,4.7-25.3c0-1.7-0.3-2.6-0.9-2.6c-0.6,0-1.6,0.4-3,1.3c-1.4,0.9-2.8,2.1-4.3,3.5c-0.7,0.7-1.2,1.6-1.4,2.8
		c-0.5,2.4-1,5.2-1.7,8.4s-1.3,6.4-1.9,9.6c-0.6,3.2-1,5.3-1.2,6.3c-0.2,1-0.8,1.4-1.7,1.4c-0.8,0-2.3-0.3-4.5-1
		c-2.2-0.7-3.7-1.2-4.7-1.7c-0.8-0.4-1.2-1-1.2-1.9c0-0.5,1.1-6.9,3.2-19.3c2.1-12.4,3.2-19.2,3.4-20.3c0.1-1,0.7-1.5,1.7-1.5
		c0.5,0,1.8,0.2,3.9,0.6c2.2,0.4,3.7,0.8,4.7,1.2c1.1,0.4,1.7,1.2,1.7,2.4v2.5c0,0.5,0.1,0.7,0.4,0.7l0.6-0.4
		c3.5-4.5,6.7-6.8,9.6-6.8c1.7,0,3.5,0.9,5.6,2.6c2.1,1.7,3.6,3.6,4.5,5.6c0.2,0.5,0.5,0.7,0.8,0.7
		C806.5,805.9,806.7,805.7,806.9,805.4z"/>
	<path class="st0" d="M879.6,809.2c0,1.2-0.4,2.2-1.3,2.9c-5.8,4.7-12.1,10.4-19,17c-0.2,0.2-0.4,0.4-0.4,0.6c0,0.2,0.3,0.4,0.8,0.4
		c2.7-0.1,5.1-0.2,7.1-0.2c1.7,0,2.9,0,3.5,0.1c1.2,0.1,2,0.7,2.3,1.8c0.6,2.5,1,5.3,1.1,8.5c0,0.4-0.2,0.8-0.5,1.1
		c-0.4,0.3-0.8,0.5-1.3,0.5c-3.1,0-6.5,0.1-10.1,0.2c-3.7,0.1-6.8,0.3-9.3,0.4c-2.5,0.1-3.9,0.2-4.2,0.2c-1.2,0-2-0.4-2.5-1.3
		c-0.7-1.4-1.4-3.1-2.1-5.3c-0.7-2.2-1-3.7-1-4.7c0-0.7,0.3-1.5,0.9-2.4c1.6-2,4.2-4.8,7.9-8.5c3.7-3.7,7.3-7.2,10.6-10.4
		c0.3-0.3,0.5-0.5,0.5-0.6c0-0.2-0.2-0.4-0.6-0.4c-0.1,0-1.8,0.1-5,0.3c-3.2,0.2-5.3,0.3-6.2,0.3c-1.1,0-1.7-0.6-2-1.7
		c-0.4-3.2-0.6-5.8-0.6-7.7c0-0.4,0.2-0.8,0.5-1.2c0.3-0.4,0.7-0.6,1.2-0.6c6.1-0.8,14.5-1.3,25.1-1.3c1.2,0,2,0.5,2.4,1.6
		C878.9,803.4,879.6,806.8,879.6,809.2z"/>
	<path class="st0" d="M905.5,840.9c-1-0.5-1.5-1.3-1.6-2.3l-0.3-3.8c0-0.5-0.1-0.7-0.4-0.7c-0.2,0-0.4,0.1-0.5,0.4
		c-3.5,5.5-6.6,8.2-9.5,8.2c-3.2,0-6.3-1.7-9.1-5c-2.9-3.3-4.3-7.1-4.3-11.2c0-5.1,0.7-9.9,2.2-14.3c1.5-4.5,3.8-8.2,6.8-11.1
		s6.5-4.3,10.5-4.3c2.2,0,5.3,0.8,9.1,2.3c3.9,1.5,7.4,3.3,10.7,5.4c0.7,0.4,1.1,1,1.1,1.9l-0.2,1c-3,10.8-4.7,22.1-5,33.8
		c-0.1,1-0.6,1.4-1.5,1.4c-1,0-2.5-0.2-4.4-0.7C907.1,841.5,906,841.2,905.5,840.9z M901.9,825.8c0.7-0.6,1-1.3,1.2-2.1
		c1.8-8.5,2.7-13.1,2.7-13.8s-0.3-1.2-1-1.4c-1.3-0.5-2.4-0.7-3.1-0.7c-2.6,0-4.8,2.1-6.5,6.4c-1.7,4.3-2.6,8.3-2.6,12
		c0,2.9,0.5,4.4,1.4,4.4C895.8,830.6,898.4,829,901.9,825.8z"/>
	<path class="st0" d="M922.9,814.4c0-3.8,1.4-7.7,4.3-11.6c2.9-3.9,6.1-5.9,9.6-5.9c1.9,0,4.3,0.4,7.3,1.3c3,0.9,5.8,2.3,8.5,4.1
		c2.7,1.8,4,3.7,4,5.8c0,1-0.3,2.3-0.9,3.7c-0.6,1.5-1.1,2.5-1.6,3.2c-0.5,0.8-1.3,1.2-2.4,1.3h-6.7c-0.9,0-1.3-0.4-1.3-1.2
		c0-0.2,0.1-0.9,0.4-2.1c0.3-1.2,0.4-2.1,0.4-2.8c0-2.4-0.8-3.7-2.4-3.7c-1.4,0-2.7,0.9-3.9,2.7c-1.2,1.8-1.8,3.4-1.8,4.7
		c0,1.1,0.6,2.1,1.7,2.9c1.2,0.8,2.6,1.5,4.3,2.1c1.7,0.6,3.3,1.3,5,2c1.7,0.7,3.1,1.8,4.3,3.1c1.2,1.3,1.7,3,1.7,4.9
		c0,3.4-1.5,6.6-4.5,9.5c-3,2.9-6.7,4.3-11,4.3c-2.7,0-5.7-0.5-9-1.6c-3.3-1.1-5.7-2.3-7.1-3.6c-0.7-0.6-1-1.2-1-1.8
		c0-0.6,0.2-1.7,0.6-3.2c0.4-1.6,0.8-2.7,1.3-3.6c0.3-0.7,0.7-1.1,1.3-1.1c0.2,0,0.4,0.1,0.6,0.2c0.2,0.1,0.4,0.2,0.4,0.2
		c5,2.7,8.7,4,11.2,4c2.6,0,3.9-0.7,4.1-2.2c0-0.8-0.9-1.6-2.7-2.5c-1.8-0.9-3.8-1.7-6-2.5c-2.2-0.8-4.2-2.2-6-4.1
		C923.7,819.3,922.9,817,922.9,814.4z"/>
	<path class="st0" d="M987.5,807.1c-0.2,1.1-0.9,1.6-2.1,1.6h-6.5c-1,0-1.6,0.5-1.9,1.6c-1.7,7.8-2.5,12.7-2.5,14.6
		c0,3.4,1.6,5.9,4.7,7.4c0.7,0.3,1,0.8,1,1.5c0,0.2-0.1,0.5-0.2,0.7c-1.4,3-2.9,5.4-4.5,7.2c-0.6,0.6-1.3,0.9-2.1,0.9l-1-0.2
		c-3.6-1.1-6.4-3.1-8.4-5.9c-2-2.8-3-6-3-9.5c0-1.7,0.2-4,0.6-6.8c0.4-2.8,0.8-5.3,1.3-7.4l0.6-3.2c0-0.7-0.3-1.1-1-1.1h-0.9
		c-1,0-1.6-0.6-1.7-1.7v-3.7c0-1.7,0-2.9,0.1-3.6c0.1-1.2,0.7-1.8,1.9-1.9l3.1-0.3c0.8-0.1,1.4-0.6,1.7-1.7c1.6-5.8,2.9-10.1,4-12.9
		c0.3-0.8,0.9-1.3,1.8-1.3c2.3,0,5.5,0.9,9.4,2.6c0.8,0.3,1.2,0.8,1.2,1.5c0,0.5-0.5,2.3-1.4,5.2c-0.9,2.9-1.4,4.6-1.4,5
		c0,0.7,0.4,1.1,1.1,1.3c2.5,0,4.1,0,4.9,0.1c1.1,0.1,1.6,0.7,1.6,2.1v0.7C988.1,802.3,987.9,804.7,987.5,807.1z"/>
	<path class="st0" d="M999,841.2c-0.2,1-0.7,1.5-1.7,1.5c-0.7,0-2.2-0.3-4.4-0.9c-2.2-0.6-3.7-1.1-4.6-1.4c-1-0.4-1.4-1.1-1.4-2.1
		c0-3.6,0.8-10.2,2.5-19.6c1.6-9.4,3.1-16.1,4.3-19.9c0.3-1,1-1.4,2.1-1.4c0.7,0,2,0.3,4.2,0.8c2.1,0.5,3.8,1,5.1,1.5
		c0.8,0.3,1.3,0.8,1.3,1.6l-0.1,0.6C1002.8,816.1,1000.4,829.3,999,841.2z M1001.1,778c2.4,0,4.6,0.6,6.6,1.9
		c1.9,1.3,2.9,3.1,2.9,5.6c0,2.4-0.8,4.3-2.4,5.9c-1.6,1.5-3.7,2.3-6.3,2.3c-2.4,0-4.3-0.7-5.6-2.1c-1.3-1.4-1.9-3.3-1.9-5.5
		c0-2.6,1.3-5,3.9-7.1C999.1,778.3,1000.1,778,1001.1,778z"/>
	<path class="st0" d="M1036.7,807.1c-0.2,1.1-0.9,1.6-2.1,1.6h-6.5c-1,0-1.6,0.5-1.9,1.6c-1.7,7.8-2.5,12.7-2.5,14.6
		c0,3.4,1.6,5.9,4.7,7.4c0.7,0.3,1,0.8,1,1.5c0,0.2-0.1,0.5-0.2,0.7c-1.4,3-2.9,5.4-4.5,7.2c-0.6,0.6-1.3,0.9-2.1,0.9l-1-0.2
		c-3.6-1.1-6.4-3.1-8.4-5.9c-2-2.8-3-6-3-9.5c0-1.7,0.2-4,0.6-6.8c0.4-2.8,0.8-5.3,1.3-7.4l0.6-3.2c0-0.7-0.3-1.1-1-1.1h-0.9
		c-1,0-1.6-0.6-1.7-1.7v-3.7c0-1.7,0-2.9,0.1-3.6c0.1-1.2,0.7-1.8,1.9-1.9l3.1-0.3c0.8-0.1,1.4-0.6,1.7-1.7c1.6-5.8,2.9-10.1,4-12.9
		c0.3-0.8,0.9-1.3,1.8-1.3c2.3,0,5.5,0.9,9.4,2.6c0.8,0.3,1.2,0.8,1.2,1.5c0,0.5-0.5,2.3-1.4,5.2c-0.9,2.9-1.4,4.6-1.4,5
		c0,0.7,0.4,1.1,1.1,1.3c2.5,0,4.1,0,4.9,0.1c1.1,0.1,1.6,0.7,1.6,2.1v0.7C1037.2,802.3,1037.1,804.7,1036.7,807.1z"/>
	<path class="st0" d="M1075.8,814.5v0.4c0,2.3-0.3,4.9-1,7.8s-1.7,5.9-3.1,9c-1.4,3.1-3.4,5.7-6,7.8c-2.6,2.1-5.6,3.2-9,3.2
		c-2.3,0-5.1-0.6-8.2-1.8c-3.1-1.2-5.7-2.8-7.6-4.8c-2.5-2.7-3.8-6.6-3.8-11.8c0-2.7,0.4-5.6,1.2-8.6c0.8-3.1,1.9-6.1,3.3-9
		c1.4-2.9,3.4-5.3,5.8-7.2c2.4-1.9,5.1-2.8,8.1-2.8c2.4,0,5.3,0.7,8.8,2.2c3.5,1.5,6.2,3.2,8.1,5.1
		C1074.5,806.4,1075.6,809.9,1075.8,814.5z M1053.6,832.2c2.5,0,4.6-2.1,6.4-6.2c1.8-4.2,2.6-8.2,2.6-12.1c0-4.5-1.2-6.7-3.7-6.7
		c-2.3,0-4.4,2.2-6.3,6.5c-1.9,4.3-2.8,8.5-2.8,12.4C1049.9,830.2,1051.1,832.2,1053.6,832.2z"/>
	<path class="st0" d="M1117.7,805.4c4.1-5.6,7.6-8.3,10.6-8.3c2.2,0,4.6,1.3,7.2,3.9c2.6,2.6,3.9,5,3.9,7.2c0,2.1-0.7,7-2,14.5
		c-1.3,7.5-2.7,13.8-4.1,18.8c-0.2,0.9-0.9,1.3-1.9,1.3c-1,0-2.5-0.4-4.6-1.1c-2.1-0.7-3.7-1.4-4.7-2c-0.8-0.4-1.2-1-1.2-2l0.1-0.6
		c3.1-12.9,4.7-21.3,4.7-25.2c0-1.7-0.3-2.6-0.9-2.6c-0.7,0-1.8,0.4-3.3,1.3c-1.5,0.9-2.9,2.1-4.3,3.7c-0.6,0.6-1,1.6-1.3,2.9
		c-1.6,9.6-3.3,17.6-5.1,24.2c-0.2,0.9-0.8,1.3-1.8,1.3c-1,0-2.6-0.3-4.6-1s-3.7-1.3-4.9-1.9c-0.7-0.4-1.1-1-1.1-1.9l0.1-0.6
		c3.1-13,4.7-21.4,4.7-25.3c0-1.7-0.3-2.6-0.9-2.6c-0.6,0-1.6,0.4-3,1.3c-1.4,0.9-2.8,2.1-4.3,3.5c-0.7,0.7-1.2,1.6-1.4,2.8
		c-0.5,2.4-1,5.2-1.7,8.4s-1.3,6.4-1.9,9.6c-0.6,3.2-1,5.3-1.2,6.3c-0.2,1-0.8,1.4-1.7,1.4c-0.8,0-2.3-0.3-4.5-1
		c-2.2-0.7-3.7-1.2-4.7-1.7c-0.8-0.4-1.2-1-1.2-1.9c0-0.5,1.1-6.9,3.2-19.3c2.1-12.4,3.2-19.2,3.4-20.3c0.1-1,0.7-1.5,1.7-1.5
		c0.5,0,1.8,0.2,3.9,0.6c2.2,0.4,3.7,0.8,4.7,1.2c1.1,0.4,1.7,1.2,1.7,2.4v2.5c0,0.5,0.1,0.7,0.4,0.7l0.6-0.4
		c3.5-4.5,6.7-6.8,9.6-6.8c1.7,0,3.5,0.9,5.6,2.6c2.1,1.7,3.6,3.6,4.5,5.6c0.2,0.5,0.5,0.7,0.8,0.7
		C1117.2,805.9,1117.4,805.7,1117.7,805.4z"/>
</g>
<path class="st1" d="M952.4,778.6l3.5,5.4c0.1,0.2,0.1,0.4-0.1,0.6l-13.5,10.6c-0.2,0.1-0.5,0.1-0.6-0.1l-10.6-12
	c-0.2-0.2-0.1-0.5,0-0.6l5.3-4.7c0.2-0.2,0.5-0.1,0.6,0l5.7,6.3c0.1,0.2,0.4,0.2,0.6,0.1l8.4-5.8
	C951.9,778.4,952.2,778.4,952.4,778.6z"/>
<g id="XMLID_1_">
	<g>
		<path class="st2" d="M837.6,409.3c8,0.9,13.5,10.5,12.3,21.4s-8.8,19-16.8,18.1c-8-0.9-13.5-10.5-12.3-21.4
			C822,416.4,829.5,408.3,837.6,409.3z"/>
		<path class="st2" d="M740.2,322c8,0.9,13.5,10.5,12.3,21.4s-8.8,19-16.8,18.1c-8-0.9-13.5-10.5-12.3-21.4
			C724.6,329.2,732.2,321.1,740.2,322z"/>
		<polygon class="st2" points="523.3,312 532.4,359.7 503.5,328.7 		"/>
		<path class="st0" d="M953.6,244.7c0.6,5.3,2.4,23.7,2.4,57.8c0,41-3,88.7-19.3,137.3c-16.3,48.6-42.1,85-65.9,110.6
			c-23.4,25.2-60.4,51.1-82.4,60.7c-0.6,0.3-1.3,0.3-1.9-0.1c-4-2-20.3-10.4-39.1-22c0,0,34.4,107.9,35.7,110.6s2.7,4.8,16.6,5.7
			c13.9,0.8,40.3,3.1,76.7,9.2s100.3,21.2,124.1,33.2c0,0-89.8-10.1-154.4-13.9c-64.6-3.7-161.4-5.4-217.3-5.4s-146.2,3.5-191.7,6.9
			c-45.4,3.3-159.1,12.2-180.5,15.8c1.5-0.6,51.5-19.5,119.5-32.5c38-7,64.1-10,65.7-10.4c1.7-0.5,3-3.8,10.2-24.1
			c7.2-20.3,85.4-250.9,85.4-250.9s13.4-2.3,20.9-20c7.5-17.7-2.3-37.2-13.2-42.2l-15-78.7l-41.3,35.5c0,0,41.9,46.3,42.9,47.4
			c1.1,1,12,4.2,16.5,15.5c4.4,11.3,2,25.6-11.9,31.7c-13.9,6.1-26.2-3.7-31.1-14.5c0,0-33.6-24.3-50.6-39.3
			c-17-15.1-25.9-24.2-29-32.5c-3.1-8.3-1.1-17,8.5-28.9c9.6-11.9,34.7-41.9,55.3-60.1c20.6-18.2,31.3-25.3,49.8-32.7
			c18.6-7.4,32.9-10.1,32.9-10.1s16.9,10,38.5,8.5c21.5-1.5,33.7-9.3,33.7-9.3l39.3,9.6c0,0,54.8-13.5,101-40c0.7-0.4,1.5-0.4,2.2,0
			c8,4.5,57.1,31.8,93.2,45.4c37.2,14,62.1,21.6,71.8,24.3C952.8,242.9,953.4,243.7,953.6,244.7z M940,352.3
			c4-39.3,0.2-88.1-0.6-96.9c-0.1-0.8-0.7-1.5-1.5-1.8c-78.1-20-142.7-58.2-151.4-63.4c-0.6-0.4-1.4-0.4-2,0
			c-8.3,4.7-67.5,36.6-159.4,51.4c-1.4,0.2-2.5,1.4-2.6,2.8c-1,11.3-5,61,1.6,108.5c7.4,53.9,26.7,117.5,69.8,167.2
			c42,48.6,81.3,69.6,93.4,74.5c0.5,0.2,1.1,0.2,1.6-0.1c54.3-28.2,93.4-73.8,115-115.6C925.6,436.9,935.6,395.7,940,352.3z
			 M709.8,700.4l-91.1-220.3L513.8,703.4C594.3,697.5,709.8,700.4,709.8,700.4z"/>
		<path class="st2" d="M920.7,269.1c0,0,5,54.2-1.2,97c-6.2,42.8-17.7,77.9-35.5,108.3c-17.8,30.4-47.9,68.3-96.5,95.8
			c-91.7-51.4-123.1-132.3-136-187.2c-12.9-54.9-9.2-123.5-9.2-123.5c86.1-14.1,144-45.3,144-45.3S844,248.3,920.7,269.1z
			 M874.8,436.8c5.2-24.7-8.6-48.5-30.7-53.1c-22.1-4.6-44.2,11.7-49.4,36.5c-5.1,24.7,8.6,48.5,30.7,53.1
			C847.6,477.9,869.7,461.6,874.8,436.8z M741.9,466.8l118-160.1l-26-2.9L715.4,464.3L741.9,466.8z M777.5,349.6
			c5.2-24.7-8.6-48.5-30.7-53.1c-22.1-4.6-44.2,11.7-49.3,36.5c-5.2,24.7,8.6,48.5,30.7,53.1C750.2,390.6,772.3,374.3,777.5,349.6z"
			/>
		<path class="st0" d="M610.1,67c36,0,64.3,29.8,64.3,65.4c0,35.6-30.9,64.4-67,64.4c-36,0-63.4-28.8-63.4-64.4
			C543.9,96.8,574,67,610.1,67z"/>
		<path class="st2" d="M553.5,197.9c0,0-28,7.2-57.5,30.6c-29.5,23.4-73.1,72.9-79.4,85.9c-6.3,13-3.4,29.8,11,44.2
			c14.4,14.4,33.1,29.5,41.4,36.2c8.3,6.7,23.1,17.3,25.6,18.9c2.5,1.7,3.6,3,5.1,6.4c1.5,3.4,9.5,13,25,14.9l-81.3,235.9
			c0,0-23.9,0.9-44.7-9.7c-20.8-10.6-34.9-27.3-47.3-34.7c-12.4-7.4-19.9-13.2-52.5-15.2c-32.7-2.1-58.8-13-78.5-32.7
			s-39.7-54-49-68.5c-9.3-14.5-28.6-39.5-56.2-42.7c-27.7-3.1-50.8,5.4-65.3,12.8c0,0,12.8-41.8,42.7-71.6
			c29.9-29.9,64.4-47,118.9-58.8c54.6-11.9,79.8-18.5,120.1-40.3c40.3-21.7,86.1-55.7,111.2-71.1S504.7,201.6,553.5,197.9z"/>
	</g>
	<g>
	</g>
</g>
</svg>
