<?xml version="1.0" encoding="utf-8"?>
<!-- Generator: Adobe Illustrator 24.0.2, SVG Export Plug-In . SVG Version: 6.00 Build 0)  -->
<svg version="1.1" id="Layer_2_1_"
	 xmlns="http://www.w3.org/2000/svg" xmlns:xlink="http://www.w3.org/1999/xlink" x="0px" y="0px" viewBox="0 0 2389.4 569.7"
	 style="enable-background:new 0 0 2389.4 569.7;" xml:space="preserve">
<style type="text/css">
	.st0{fill:#9DA099;}
	.st1{fill:#202F56;}
	.st2{fill:#E5352C;}
	.st3{fill:#CB2D1A;}
	.st4{enable-background:new    ;}
	.st5{fill:#043487;}
	.st6{fill:#8D1A1D;}
	.st7{fill:#D1D1D1;}
	.st8{fill:#E5E5E3;}
</style>
<switch>
	<g>
		<path class="st0" d="M662.5,355.1c0.8,5.8-4.1,9.9-9,9.7c7.5-4.7,2.5-12.5,2.5-12.5l0,0c0.4-1.5,0.4-3.3,0.2-5.1
			C656.2,347.2,661.7,349.2,662.5,355.1z"/>
		<path class="st1" d="M566.9,203.2c0.2-1.3,0.3-2.2,0.5-1.7c0.5,1.2,1.7,7.4,2.8,8.5s10,3,12.3,2.5c2.2-0.5,5.8-1.3,5.8,0.5
			s0.5,10.9,0.5,10.9s-1.9-1.5-4.7-1.5s-8.6-0.4-12.7-1.8c-4.1-1.5-6-1.1-8.7,1.7c-2.7,2.7-4.7,1.6-6.7-0.4
			c-2-1.9-10.7-2.8-11.6-3.7c-0.9-0.9-2-2.7-4.2-6.4s-6.4-4.2-13.9-1.8c-6.1,1.9-5.1,1.6-10.6,2.9l-0.3-1c1.5-0.5,2.4-1.4,3.7-2.8
			c1-1,2.2-3.1,3.7-5.2c1.9-2.7,4.3-5.4,7.6-6.1c5.8-1.3,8.2,0.7,12.8,4.4s6.4,6.8,8.4,4.7c0.8-0.8,1.3-2,1.5-3.2
			c0.4-1.7,0.3-3.3,0.3-3.3s2.7,2,4.9,5.5c2.2,3.4,4.3,6.7,6.5,4.5c0.7-0.7,1.2-2,1.5-3.5C566.6,205.7,566.8,204.3,566.9,203.2z"/>
		<g>
			<path class="st2" d="M613.4,296.5c0,0,4.7,4.3,10.9,11.5c0,0-84.8,63.3-184.5,91.3s-138.7,2.5-151.5-12c-0.4-0.7-0.7-1.3-1.1-2
				c-5.7-10.9-9.8-22.4-3.1-44.9c6.7-22.5,32.6-59,63.4-85l-0.3,7.1c0,0-0.7,4-1.1,12.6c0,0-24.9,24.4-33.9,48.5s-4.8,41.3,8.8,52.7
				l0,0c4.2,5.4,17.5,11.8,39.8,14.5c8.9,1.1,18.8,1.2,29.4,0.5c3.7-0.2,7.5-0.6,11.3-1c9.3-1.1,18.9-2.8,28.8-5
				c1.3-0.3,2.5-0.6,3.8-0.9c5.9-1.4,11.9-3.1,17.9-4.9c33.4-10.2,68-25,96.4-40.5c0.3-0.2,0.6-0.3,0.9-0.5c0.6-0.3,1.3-0.7,1.9-1.1
				c27.3-15.2,52.3-33.2,52.3-33.2l6.1-4.8L613.4,296.5z"/>
			<path class="st3" d="M722.7,172.1c2.5,6.3,8.5,17.4,7.2,35c-1.4,17.6-13.8,43.4-33,66.2c-10.2,12.1-22.5,24.2-32.6,33.4l0,0
				c-8.6,7.9-15.7,13.7-18.6,15.8c-0.1,0.1-0.2,0.2-0.3,0.2c0,0-3.4-5.3-4.7-7.2c0,0-3.9-5.9-9.7-12.7l0,0c0,0,45.9-34.9,69.3-68.7
				c23.4-33.8,22.4-54.1,20.1-67.9C721.1,168.3,722,170.3,722.7,172.1z"/>
			<path class="st2" d="M720.5,166.2c2.3,13.8,3.2,34.2-20.1,67.9c-23.4,33.8-69.3,68.7-69.3,68.7l0,0c-3.2-3.9-7-8-11-11.7
				c0,0,4.8-3.7,11.9-9.7c5.8-5,13.2-11.5,20.5-19l0,0c1.6-1.6,3.3-3.3,4.9-5c1.4-1.5,2.9-3.1,4.3-4.7c1.6-1.8,3.2-3.7,4.7-5.6l0,0
				c16-19.6,27.1-41.2,26.4-59.9c-0.6-20-16.6-36.5-41.3-40.3s-52.9,1-52.9,1c-4.5-3.3-9.5-6.6-14.2-9.2c0,0,32.5-9.3,69.1-8
				c36.6,1.2,52.4,15.1,57.9,20.7C715.3,155.4,718.2,161,720.5,166.2z"/>
			<path class="st3" d="M638.9,328.1c0,0-5.1,4.1-13.7,10.3c-1.8,1.3-3.8,2.7-6,4.3c-0.7,0.5-1.4,1-2.1,1.5
				c-1.7,1.2-3.6,2.5-5.5,3.7l0,0c-4.1,2.8-8.5,5.7-13.3,8.7c-9.4,5.9-19.9,12.2-30.9,18c0,0-4.4,2.4-11.9,6.2c-0.7,0.3-1.3,0.7-2,1
				c-21.9,10.9-66.4,31.4-110.6,42.5c-9.9,2.5-19.8,4.5-29.5,5.8c-69.8,9.5-97.7-7.2-109.9-19.4c-7.5-8.4-10.3-13.8-15.3-23.3
				c12.8,14.4,51.8,39.9,151.5,12s184.5-91.3,184.5-91.3C628.8,313.3,634.1,320.2,638.9,328.1z"/>
		</g>
		<g class="st4">
			<path class="st5" d="M908.3,339.6c0,16.1-7,30.4-21,42.8S857.7,401,840.5,401c-8.6,0-18.3-1.7-29.1-5s-19.7-8-26.8-14.1
				c-9-7.8-14.9-20.2-17.4-37.5c-0.2-1.9-0.3-3.3-0.3-4.2c0-3.4,1.9-6,5.8-7.8c9.7-3.7,19.4-6,29.1-7.1c3,0,5.1,1.7,6.1,5.2
				c0.2,0.9,0.8,3.1,1.8,6.6c1,3.6,1.6,5.8,1.9,6.8c0.3,1,1,2.8,2.1,5.5s2.1,4.5,3.2,5.3c1.1,0.9,2.5,2,4.2,3.6
				c1.7,1.5,3.7,2.5,6,2.9s4.9,0.6,7.9,0.6c7.3,0,13.3-1.7,18.1-5.2c4.7-3.4,7.1-7.4,7.1-12c0-4.7-2.7-9.3-8.1-13.6
				c-5.4-4.3-11.8-8.6-19.1-12.9c-7.4-4.3-14.9-8.7-22.8-13.2c-7.8-4.5-14.4-10.8-19.8-18.6c-5.4-7.9-8.1-16.8-8.1-27
				c0-17.7,6.6-34.8,19.9-51.4c13.2-16.6,28-24.9,44.4-24.9c8.2,0,18.1,1.8,29.9,5.5c11.7,3.7,22.7,9.4,32.8,17.3
				c10.1,7.9,15.2,16.3,15.2,25.4c0,4.5-1.1,10.2-3.4,17.1c-2.3,6.9-4.5,12.2-6.6,15.8c-1.7,3.7-4.3,5.6-7.8,5.8
				c-3.2,0.4-13.1,0.6-29.7,0.6c-4.1,0-6.1-1.4-6.1-4.2c0-0.2,0.8-4.1,2.3-11.6s2.3-13.2,2.3-17.1c0-11.2-4.6-16.8-13.9-16.8
				c-7.8,0-14.7,4.1-20.8,12.2c-6.1,8.2-9.2,15.7-9.2,22.7c0,5.9,2.7,11.3,8.2,16.1s11.9,9.1,19.3,13.1c7.4,3.9,15,8,22.6,12.1
				c7.7,4.1,14.1,9.8,19.1,17.1C905.7,321.7,908.3,330.1,908.3,339.6z"/>
			<path class="st5" d="M1023.9,240.1c0.9-3,2.7-4.5,5.5-4.5c3,0,8.2,1.9,15.5,5.8c7.3,3.9,12.9,7.4,16.8,10.7
				c2.8,2.6,4.2,5.3,4.2,8.1l-0.3,1.9c-4.1,17.2-13.2,41.1-27.5,71.5c-14.2,30.5-26.4,51.1-36.5,61.9c-2.2,2.2-5.1,3.2-8.7,3.2
				c-5.8,0-14.5-2.4-26-7.1s-19.8-9.2-24.7-13.2c-2.8-2.1-4.4-5.6-4.8-10.3c-0.6-14.6-1-38.2-1-70.7c0-27.1,0.1-46.1,0.3-56.8
				c0-4.1,2-6.1,6.1-6.1c11.4,0,23.4,1.3,35.9,3.9c3.7,0.9,5.5,3.4,5.5,7.8c-1.7,19.8-3.3,55.1-4.8,105.9c0,1.9,0.3,2.9,1,2.9
				s1.3-0.8,1.9-2.3c6-12.3,13.4-30,22.1-53.3C1013.1,276,1019.6,256.3,1023.9,240.1z"/>
			<path class="st5" d="M1112.1,336.7c0,5.2,1.8,9.9,5.3,14.2c3.6,4.3,8.1,6.5,13.7,6.5c10.3,0,21.2-3.2,32.6-9.7
				c0.9-0.4,1.7-0.6,2.6-0.6c1.9,0,3.6,1.1,4.8,3.2c5.6,10.3,8.4,17.4,8.4,21.3c0,3.2-1.1,5.9-3.2,8.1
				c-14.9,13.1-29.8,19.7-44.9,19.7c-6.7,0-15.7-2.3-27.1-6.9s-19.9-10.4-25.5-17.3c-8.8-11.2-13.2-25.4-13.2-42.6
				c0-13.8,2.7-28.2,8.2-43.3c5.5-15.1,13.6-28.2,24.2-39.2c10.7-11.1,22.1-16.6,34.4-16.6c6,0,15.2,2.7,27.6,8.1
				c12.4,5.4,21.4,10.9,27,16.5c5.4,5.4,8.1,13.4,8.1,23.9c0,13.6-5.7,25.7-17,36.3c-11.3,10.7-26.3,16-45.1,16
				c-2.4,0-5.7-0.2-10-0.6s-6.8-0.6-7.4-0.6C1113.3,332.8,1112.1,334.1,1112.1,336.7z M1143.7,268.2c-4.7,0-10.2,4.6-16.5,13.7
				c-6.2,9.2-9.4,16.1-9.4,20.8c0,2.6,1.4,3.9,4.2,3.9c8.6,0,15.7-3,21.2-8.9s8.2-11.9,8.2-17.9
				C1151.5,272.1,1148.9,268.2,1143.7,268.2z"/>
			<path class="st5" d="M1307.8,270.5c-0.6,3.9-3.2,5.8-7.8,5.8h-23.6c-3.4,0-5.7,1.9-6.8,5.8c-6,28.2-9,45.8-9,52.6
				c0,12.3,5.7,21.2,17.1,26.8c2.4,1.1,3.6,2.9,3.6,5.5c0,0.9-0.2,1.7-0.6,2.6c-5.2,10.8-10.6,19.4-16.2,25.8
				c-2.2,2.2-4.6,3.2-7.4,3.2l-3.6-0.6c-12.9-4.1-23-11.2-30.2-21.3c-7.2-10.1-10.8-21.5-10.8-34.2c0-6.2,0.8-14.4,2.3-24.5
				s3-19.1,4.5-26.8l2.3-11.6c0-2.6-1.2-3.9-3.6-3.9h-3.2c-3.7,0-5.7-2-6.1-6.1v-13.2c0-6.2,0.1-10.5,0.3-12.9
				c0.4-4.3,2.7-6.6,6.8-6.8l11.3-1c3-0.2,5.1-2.3,6.1-6.1c5.6-20.9,10.4-36.4,14.5-46.5c1.1-3,3.2-4.5,6.5-4.5
				c8.4,0,19.7,3.1,33.9,9.4c2.8,1.1,4.2,2.9,4.2,5.5c0,1.9-1.7,8.2-5,18.7c-3.3,10.6-5,16.6-5,18.1c0,2.6,1.3,4.1,3.9,4.5
				c9,0,15,0.1,17.8,0.3c3.9,0.2,5.8,2.7,5.8,7.4v2.6C1309.8,253.4,1309.1,261.9,1307.8,270.5z"/>
			<path class="st5" d="M1360.5,347c0.4-1.1,0.6-2.4,0.6-3.9c0-1.1-0.9-4.7-2.7-10.8c-1.8-6.1-2.7-10.3-2.7-12.4
				c0-3.4,1.7-5.5,5.2-6.1l7.8-1.6c3.4-0.6,6-2.8,7.8-6.5c3.2-6.5,9.4-19.4,18.6-38.9s17.2-35.9,24.1-49.3
				c6.9-13.3,12.5-22.6,16.8-27.8c1.7-1.9,3.9-2.9,6.5-2.9c1.1,0,3,0.4,5.8,1.1c2.8,0.8,4.5,1.1,5.2,1.1c3.2,0,5.1-1.4,5.5-4.2
				s1.8-4.2,4.2-4.2c2.2,0,7.4,1.4,15.7,4.2c8.3,2.8,13.9,5,17,6.5c3.7,1.7,5.8,4.6,6.5,8.7c3.4,17.9,5.2,58.4,5.2,121.4
				c0,33.2-0.9,57.5-2.6,73c-0.4,3.2-2.6,4.8-6.5,4.8c-2.8,0-8.5-0.7-17.1-2.1s-14.3-2.5-17.1-3.4c-3.4-1.1-5.2-3.9-5.2-8.4
				c0-2.6,0.2-8.9,0.5-18.9s0.5-15.8,0.5-17.3c0-3.2-1.7-4.8-5.2-4.8c-14.9,0-28.7,0.5-41.7,1.6c-3.2,0.2-5.7,2.2-7.4,5.8
				c-2.2,5-5.1,12.4-8.9,22.4s-6.3,16.6-7.6,19.9c-1.3,2.6-3.2,3.9-5.8,3.9c-2.4,0-7.1-1.6-14.2-4.8c-7.1-3.2-12.2-5.8-15.2-7.8
				c-2.6-1.9-3.9-4.1-3.9-6.5l0.3-2.6L1360.5,347z M1425.1,301.2c-0.4,0.9-0.6,1.5-0.6,1.9c0,1.7,1.5,2.6,4.5,2.6s7.8-0.1,14.2-0.2
				c6.5-0.1,10.2-0.2,11.3-0.2c3.4,0,5.5-2,6.1-6.1c0.2-4.7,0.3-12.1,0.3-22c0-9.5-0.3-24.5-1-45.2c0-1.9-0.4-2.9-1.3-2.9
				c-0.6,0-1.3,0.6-1.9,1.9L1425.1,301.2z"/>
			<path class="st5" d="M1621.5,314.4c-1.9,1.5-2.9,3.1-2.9,4.8c0,0.9,0.4,1.9,1.3,3.2c12.3,20,23.7,35.2,34.2,45.5
				c1.5,1.5,2.3,3.1,2.3,4.8c0,1.5-0.5,2.8-1.6,3.9c-9.5,9.3-19.9,16.4-31.3,21.3c-1.5,0.6-2.9,1-4.2,1c-2.6,0-4.7-0.9-6.5-2.6
				c-9.5-9.3-19-26.8-28.4-52.6c-1.3-4.1-3-6.1-5.2-6.1c-2.8,0-4.5,2-5.2,6.1c-3.2,20.5-5.6,37-7.1,49.7c-0.4,3.4-2.4,5.2-5.8,5.2
				c-2.8,0-8.1-1.1-15.8-3.2c-7.8-2.2-13.1-3.9-16.2-5.2c-3.4-1.5-5.2-4.4-5.2-8.7c0.9-24.3,6.1-60.1,15.8-107.4
				c9.7-47.3,18.1-79,25.2-95.1c1.1-3,3.3-4.5,6.8-4.5c2.1,0,7.6,1.2,16.5,3.7c8.8,2.5,14.7,4.4,17.8,5.7c2.8,0.9,4.2,2.9,4.2,6.1
				l-1,3.6c-8.2,22.6-16.9,56.3-26.2,101.1c-0.2,0.9-0.3,1.5-0.3,1.9c0,1.9,0.8,2.9,2.3,2.9s3.8-1.7,6.8-5.2
				c20.7-23.9,36.3-42.4,46.8-55.6c1.3-1.7,3-2.6,5.2-2.6l3.6,1.3c9,6.2,17.1,14.1,24.2,23.6c0.9,1.1,1.3,2.5,1.3,4.2
				s-0.9,3.4-2.6,5.2L1621.5,314.4z"/>
			<path class="st5" d="M1759.1,310.2c-3.2-0.4-4.8-2-4.8-4.8c0-0.6,0.7-4.2,2.1-10.8c1.4-6.6,2.1-11,2.1-13.4c0-6.7-2-10-6.1-10
				c-7.1,0-14.3,6.7-21.5,20.2s-10.8,26.8-10.8,39.9c0,8,1.7,14.2,5,18.7s8,6.8,14.1,6.8c10.5,0,21.4-3.2,32.6-9.7
				c0.9-0.4,1.7-0.6,2.6-0.6c1.9,0,3.6,1.1,4.8,3.2c5.6,10.3,8.4,17.7,8.4,22c0,3.2-1.1,5.9-3.2,8.1c-14.9,13.1-29.8,19.7-44.9,19.7
				c-6.7,0-15.7-2.3-27.1-6.9s-19.9-10.4-25.5-17.3c-8.8-11.2-13.2-25.4-13.2-42.6c0-23.7,6.7-46.1,20-67.3s28.9-31.8,46.5-31.8
				c9.3,0,22,4.4,38.1,13.1c16.2,8.7,24.2,18.8,24.2,30.2c0,3.7-1.1,8.6-3.2,14.7c-2.2,6.1-4.2,10.7-6.1,13.7
				c-1.7,3-4.3,4.6-7.8,4.8C1781.8,310.1,1773,310.2,1759.1,310.2z"/>
			<path class="st5" d="M1848.5,393.6c-0.6,3.7-2.7,5.5-6.1,5.5c-2.6,0-7.9-1.1-15.8-3.2c-8-2.2-13.5-3.9-16.5-5.2
				c-3.4-1.5-5.2-4.1-5.2-7.8c0-13.1,3-36.7,8.9-70.7s11.1-57.9,15.7-71.7c1.1-3.4,3.7-5.2,7.8-5.2c2.4,0,7.4,0.9,15,2.7
				s13.7,3.6,18.3,5.3c3,1.1,4.5,3,4.5,5.8l-0.3,2.3C1862.4,303.1,1853.7,350.5,1848.5,393.6z M1856.3,165.5
				c8.8,0,16.7,2.3,23.7,6.8s10.5,11.2,10.5,20c0,8.6-2.9,15.7-8.6,21.2s-13.3,8.2-22.8,8.2c-8.8,0-15.6-2.6-20.2-7.8
				s-6.9-11.7-6.9-19.7c0-9.5,4.6-18,13.9-25.5C1848.9,166.6,1852.4,165.5,1856.3,165.5z"/>
			<path class="st5" d="M1881.4,456.5c-1.5,1.3-3.7,1.9-6.4,1.9c-1.5,0-3.1-0.4-4.8-1.3c-6.9-3.2-14.6-8.4-23.3-15.5
				c-0.9-0.9-1.3-1.9-1.3-3.2s0.8-2.7,2.3-4.2c11.4-9.5,19.1-22.6,22.9-39.4c1.8-10.2,6.4-36.6,13.9-79.3s11.9-67.8,13.2-75.5
				c0.6-3.7,3-5.5,7.1-5.5c7.8,0,18.7,1.8,32.9,5.5c3.4,1.1,5.2,3.6,5.2,7.4c0,5.6-3.5,27.1-10.6,64.6c-7,37.5-12.3,64.2-15.7,80.1
				C1910,423.5,1898.2,444.9,1881.4,456.5z M1923.8,165.5c8.8,0,16.7,2.3,23.7,6.8s10.5,11.2,10.5,20c0,8.6-2.9,15.7-8.6,21.2
				s-13.3,8.2-22.8,8.2c-8.8,0-15.6-2.6-20.2-7.8s-6.9-11.7-6.9-19.7c0-9.5,4.6-18,13.9-25.5
				C1916.5,166.6,1919.9,165.5,1923.8,165.5z"/>
			<path class="st5" d="M2038.4,392.6c-3.4-1.9-5.4-4.7-5.8-8.4l-1-13.6c0-1.7-0.4-2.6-1.3-2.6c-0.6,0-1.3,0.5-1.9,1.6
				c-12.5,19.8-23.9,29.7-34.2,29.7c-11.6,0-22.6-6-32.9-18.1s-15.5-25.5-15.5-40.4c0-18.3,2.7-35.5,8.1-51.7s13.6-29.4,24.5-39.9
				c11-10.4,23.6-15.7,37.8-15.7c8,0,18.9,2.7,32.9,8.2c14,5.5,26.8,12,38.4,19.5c2.6,1.5,3.9,3.8,3.9,6.8l-0.6,3.6
				c-11,39-17,79.6-18.1,121.8c-0.4,3.4-2.3,5.2-5.5,5.2c-3.7,0-8.9-0.8-15.8-2.4C2044.5,394.7,2040.2,393.5,2038.4,392.6z
				 M2025.5,338c2.4-2.1,3.8-4.6,4.2-7.4c6.5-30.6,9.7-47.2,9.7-49.7s-1.2-4.3-3.6-5.2c-4.7-1.7-8.5-2.6-11.3-2.6
				c-9.5,0-17.3,7.7-23.4,23.1s-9.2,29.9-9.2,43.4c0,10.6,1.7,15.8,5.2,15.8C2003.6,355.4,2013,349.6,2025.5,338z"/>
		</g>
		<path class="st6" d="M346.1,275.1c-0.3,7.2,0.6,16.8,1.8,29.9c0,0-16.7,20.8-23,36c-6.3,15.2-7.4,27.7-5.1,33.4
			c0.3,0.6,0.6,1.2,1.1,1.8c-13.6-11.4-17.8-28.6-8.8-52.7S346.1,275.1,346.1,275.1z"/>
		<path class="st6" d="M650.9,146.8c25.3,4,42.6,19.7,41.9,40.4c0,0-15.2-24.1-71.7-20.5c0,0-10.1-9.7-22.5-18.8
			C598.6,148,625.9,142.9,650.9,146.8z"/>
		
			<g>
			<path class="st2" d="M624.3,308C624.3,308,624.2,308,624.3,308c-1,0.7-11.8,8.7-29.6,19.9c-0.4,0.3-0.9,0.5-1.3,0.8
				c-0.8,0.5-1.6,1-2.4,1.5c-2.6,1.6-5.3,3.3-8.1,5c-1.4,0.8-2.8,1.7-4.2,2.5c0,0-0.1,0-0.1,0.1c-1.4,0.8-2.9,1.7-4.4,2.6
				c0,0,0,0-0.1,0c-30.9,18.1-73.6,39.8-120.3,54.6c-3.1,1-6.2,1.9-9.3,2.8c-1.1,0.3-2.2,0.7-3.3,1c-0.5,0.1-0.9,0.3-1.4,0.4
				c-1.9,0.5-3.8,1.1-5.7,1.6c-0.2,0-0.3,0.1-0.5,0.1c-64.4,17.1-102.4,11.2-124.2,1.3c-1.7-0.8-3.4-1.6-4.9-2.4
				c-7.6-4.2-12.8-8.7-16.1-12.5c-0.4-0.7-0.7-1.3-1.1-2c-5.7-10.9-9.8-22.4-3.1-44.9c5.5-18.6,22.7-45.5,45.9-68.9l6.4,14.1
				c-8,9.4-18.9,23.9-24.2,38.1c-9,24.1-4.8,41.3,8.8,52.7c2.1,2.7,6.5,5.7,13.1,8.3c6.6,2.6,15.5,4.9,26.7,6.2
				c8.9,1.1,18.8,1.2,29.4,0.5c3.7-0.2,7.5-0.6,11.3-1c9.3-1.1,18.9-2.8,28.8-5c1.3-0.3,2.5-0.6,3.8-0.9c5.9-1.4,11.9-3.1,17.9-4.9
				c33.4-10.2,68-25,96.4-40.5c0.3-0.2,0.6-0.3,0.9-0.5c0.6-0.3,1.3-0.7,1.9-1.1c27.3-15.2,52.3-33.2,52.3-33.2l6.1-4.8l3.8-3
				C613.4,296.5,618.1,300.8,624.3,308z"/>
			<path class="st3" d="M722.7,172.1c2.5,6.3,8.5,17.4,7.2,35c-1.4,17.6-13.8,43.4-33,66.2c-10.2,12.1-22.5,24.2-32.6,33.4l0,0
				c-8.6,7.9-15.7,13.7-18.6,15.8c-0.1,0.1-0.2,0.2-0.3,0.2c0,0-3.4-5.3-4.7-7.2c0,0-3.9-5.9-9.7-12.7l0,0c0,0,45.9-34.9,69.3-68.7
				c23.4-33.8,22.4-54.1,20.1-67.9C721.1,168.3,722,170.3,722.7,172.1z"/>
			<path class="st2" d="M700.4,234.1c-23.4,33.8-69.3,68.7-69.3,68.7c0,0,0,0,0,0c-3.2-3.9-7-8-11-11.7c0,0,4.8-3.7,11.9-9.7
				c5.8-5,13.2-11.5,20.5-19c1.6-1.6,3.3-3.3,4.9-5c1.4-1.5,2.9-3.1,4.3-4.7c1.6-1.8,3.2-3.7,4.7-5.6c15.5-19,26.4-39.9,26.4-58.2
				c0-0.6,0-1.1,0-1.7c-0.6-20-16.6-36.5-41.3-40.3c-14.5-2.2-30.2-1.5-40.7-0.5l-1.1-12.9c12.1-1.9,27.5-3.4,43.8-2.8
				c36.6,1.2,52.4,15.1,57.9,20.7c3.9,4,6.8,9.6,9.1,14.8c0,0.2,0.1,0.4,0.1,0.6C722.8,180.6,723.3,200.9,700.4,234.1z"/>
			<path class="st3" d="M638.9,328.1c0,0-5.1,4.1-13.7,10.3c-1.8,1.3-3.8,2.7-6,4.3c-0.7,0.5-1.4,1-2.1,1.5
				c-1.7,1.2-3.6,2.5-5.5,3.7l0,0c-4.1,2.8-8.5,5.7-13.3,8.7c-9.4,5.9-19.9,12.2-30.9,18c0,0-4.4,2.4-11.9,6.2c-0.7,0.3-1.3,0.7-2,1
				c-21.9,10.9-66.4,31.4-110.6,42.5c-9.9,2.5-19.8,4.5-29.5,5.8c-69.8,9.5-97.7-7.2-109.9-19.4c-7.5-8.4-10.3-13.8-15.3-23.3
				c12.8,14.4,51.8,39.9,151.5,12s184.5-91.3,184.5-91.3C628.8,313.3,634.1,320.2,638.9,328.1z"/>
		</g>
		<g>
			<path class="st3" d="M674.1,394.7c2.4,3.1,2.5,7,0.1,8.8c-2.3,1.8-6.2,0.8-8.5-2.3c-2.4-3.1-2.5-7-0.1-8.8
				C667.8,390.6,671.7,391.6,674.1,394.7z"/>
			<path class="st3" d="M714.8,399.6c2.5,3,2.6,7,0.3,8.8c-2.3,1.9-6.1,0.9-8.6-2.1s-2.6-7-0.4-8.8
				C708.5,395.7,712.3,396.6,714.8,399.6z"/>
			<path class="st7" d="M653.5,364.8c4.8,0.2,9.7-3.9,9-9.7c-0.8-5.9-6.3-8-6.3-8c-0.5-4-1.9-7.9-1.9-7.9c8.7,0,15.7,7.4,15.7,16.4
				c0,9.1-7,16.4-15.7,16.4s-15.7-7.4-15.7-16.4c0-6.5,2.5-11,7.4-13.8c1,2,1.9,4.4,2.4,5.9c0.3,0.9,0.2,1.8-0.4,2.5
				c-2.5,2.8-2,6.9-2,6.9c0,2,2.2,7.4,7.1,7.7C653.2,364.8,653.4,364.8,653.5,364.8z"/>
			<g>
				<g>
					<path class="st3" d="M694.7,429.1l-1.7-60.8c0-1-1.2-1.6-2.1-1l-4.2,3c-0.5,0.3-0.7,0.9-0.7,1.4l1.7,61.7c0,0.6,0.7,1,1.2,0.6
						l5.1-3.5C694.4,430.2,694.7,429.7,694.7,429.1z M738.3,407.3c2.4,3.8,2.9,6.6-3.4,11.9c-6.3,5.3-42.7,35.1-45.6,36.5
						c-2.9,1.4-6-0.4-9-4.1c-3-3.8-5.7-7.6-5.7-7.6s-46-59.7-48.1-62.8c-2-3.2-2-4.5-0.8-14.1s3.1-20.5,3.7-22.7
						c0.6-2.2,12.2-10.7,12.2-10.7s2.6,4.7,4.3,8c0,0,0,0.1,0.1,0.1c-4.9,2.8-7.4,7.3-7.4,13.8c0,9.1,7,16.4,15.7,16.4
						s15.7-7.4,15.7-16.4c0-9.1-7-16.4-15.7-16.4L649,329c0,0,2.7-1.2,3.4-1.2s27,5.4,29.5,6.4s4.1,3.3,9.9,11.1
						C697.7,353.1,735.9,403.5,738.3,407.3z M719.3,413.5c5.1-4.2,5.3-12.3,0.6-18.1c-4.8-5.8-12.7-7.1-17.8-3
						c-5.1,4.2-5.3,12.3-0.6,18.1C706.2,416.4,714.2,417.7,719.3,413.5z M678.2,408.7c5.2-4,5.7-12.1,1-18
						c-4.6-5.9-12.6-7.5-17.8-3.4c-5.2,4-5.6,12.1-1,18C665.1,411.2,673,412.7,678.2,408.7z"/>
					<g>
						<path class="st8" d="M645.9,341.7c-1.7-3.3-4.3-8-4.3-8s-11.6,8.4-12.2,10.7c-0.7,2.2-2.5,13.2-3.7,22.7
							c-1.2,9.6-1.2,10.9,0.8,14.1c2,3.1,48.1,62.8,48.1,62.8s2.6,3.8,5.7,7.6c3,3.8,6.1,5.5,9,4.1s39.3-31.2,45.6-36.5
							s5.8-8.1,3.4-11.9c-2.4-3.8-40.6-54.3-46.4-62c-5.8-7.8-7.4-10.1-9.9-11.1s-28.8-6.4-29.5-6.4S649,329,649,329l5.2,10.3
							c0,0,1.5,3.9,1.9,7.9c0.2,1.8,0.2,3.6-0.2,5.1c0,0.2-0.1,0.3-0.1,0.5c-1.6,4.8-7.3,5.1-9.9,4.3c0,0-0.6-4.1,2-6.9
							c0.6-0.7,0.7-1.6,0.4-2.5C647.8,346.2,646.9,343.8,645.9,341.7C646,341.8,646,341.8,645.9,341.7z M744.3,404.4
							c3.7,6.1,4.9,12.6-8.3,22.9c0,0-33.9,27.4-44.2,34.9l0,0c-7.9,2.1-12.6-1.2-14.5-3.5s-14.2-18.3-14.2-18.3
							s-40.6-53.1-43.1-57.5c-2.5-4.5-1.4-9.8,0-20.5s2.3-17.3,2.8-19.2c0.5-1.9,2.2-4.8,2.2-4.8c8.6-6.2,13.7-10.3,13.7-10.3
							c-4.7-7.9-10.1-14.7-14.6-20.1c-6.1-7.2-10.9-11.5-10.9-11.5s-5.2-4.3-6-4.6c-0.9-0.3,2.2,7.6,2.2,7.6l-6.1,4.8
							c0,0-9.1-14.1-3.2-20.9c5.9-6.8,18.3,6.1,19.9,7.7c4,3.6,7.8,7.8,11,11.7c5.8,6.9,9.7,12.7,9.7,12.7c1.4,2,4.7,7.2,4.7,7.2
							c0.1-0.1,0.2-0.2,0.3-0.2c0,0,3-1.1,4.1-1.3c1.1-0.2,4.7,0.2,11.2,1.5s19.6,3.8,23.5,5.1c3.9,1.3,6.5,4.5,13.5,13.9
							C704.9,351.4,740.5,398.3,744.3,404.4z"/>
					</g>
				</g>
				<path class="st0" d="M689.3,463.9c-5.3,3.1-12.5,1.6-19.8-7.9c-6.3-8.2-39-50.9-49.7-65.6c-1.7-2.3-2.8-3.9-3.2-4.6
					c-3-5.2-2.1-7.2-1.2-16.4c0.2-1.8,0.4-3.9,0.7-6.1c1.1-9.2,2.8-20.4,2.8-20.4c2.1-1.5,4.2-3,6.1-4.4c0,0-1.7,2.9-2.2,4.8
					s-1.4,8.5-2.8,19.2c-1.4,10.7-2.5,15.9,0,20.4c2.5,4.4,43,57.5,43,57.5s12.4,16,14.3,18.3s6.3,5.5,14.4,3.5
					C690.7,463.1,689.8,463.6,689.3,463.9z"/>
			</g>
			<path class="st8" d="M679.2,390.7c4.6,5.9,4.2,14-1,18s-13.1,2.5-17.8-3.4c-4.6-5.9-4.2-14,1-18
				C666.7,383.2,674.6,384.7,679.2,390.7z M674.2,403.6c2.3-1.8,2.3-5.8-0.1-8.8c-2.4-3.1-6.2-4.1-8.5-2.3c-2.3,1.8-2.3,5.8,0.1,8.8
				C668,404.3,671.9,405.4,674.2,403.6z"/>
			<path class="st8" d="M688.9,434c-0.5,0.4-1.2,0-1.2-0.6l-1.7-61.7c0-0.6,0.3-1.1,0.7-1.4l4.2-3c0.9-0.6,2,0,2.1,1l1.7,60.8
				c0,0.6-0.3,1.1-0.7,1.4L688.9,434z"/>
			<path class="st8" d="M719.9,395.5c4.8,5.8,4.5,13.9-0.6,18.1s-13.1,2.8-17.8-3c-4.8-5.8-4.5-13.9,0.6-18.1
				C707.1,388.3,715.1,389.7,719.9,395.5z M715.2,408.5c2.3-1.9,2.1-5.8-0.3-8.8c-2.5-3-6.3-3.9-8.6-2.1c-2.3,1.9-2.1,5.8,0.4,8.8
				C709,409.4,712.9,410.4,715.2,408.5z"/>
		</g>
		<path class="st0" d="M448.2-281.8C448.2-281.7,448.2-281.7,448.2-281.8l-0.6-1.5c0,0,0,0,0.1,0L448.2-281.8z"/>
		<path class="st0" d="M563.2,136.4"/>
	</g>
</switch>
</svg>
