<?xml version="1.0" encoding="UTF-8"?>
<svg id="Layer_2" xmlns="http://www.w3.org/2000/svg" version="1.1" xmlns:xlink="http://www.w3.org/1999/xlink" viewBox="0 0 1190.9 894.6">
  <!-- Generator: Adobe Illustrator 29.3.1, SVG Export Plug-In . SVG Version: 2.1.0 Build 151)  -->
  <path d="M900.6,409.3c8,.9,13.5,10.5,12.3,21.4s-8.8,19-16.8,18.1-13.5-10.5-12.3-21.4c1.2-11,8.7-19.1,16.8-18.1Z"/>
  <path d="M803.2,322c8,.9,13.5,10.5,12.3,21.4s-8.8,19-16.8,18.1-13.5-10.5-12.3-21.4c1.2-10.9,8.8-19,16.8-18.1Z"/>
  <polygon points="586.3 312 595.4 359.7 566.5 328.7 586.3 312"/>
  <path d="M1016.6,244.7c.6,5.3,2.4,23.7,2.4,57.8s-3,88.7-19.3,137.3c-16.3,48.6-42.1,85-65.9,110.6-23.4,25.2-60.4,51.1-82.4,60.7-.6.3-1.3.3-1.9,0-4-2-20.3-10.4-39.1-22,0,0,34.4,107.9,35.7,110.6s2.7,4.8,16.6,5.7c13.9.8,40.3,3.1,76.7,9.2s100.3,21.2,124.1,33.2c0,0-89.8-10.1-154.4-13.9-64.6-3.7-161.4-5.4-217.3-5.4s-146.2,3.5-191.7,6.9c-45.4,3.3-159.1,12.2-180.5,15.8,1.5-.6,51.5-19.5,119.5-32.5,38-7,64.1-10,65.7-10.4,1.7-.5,3-3.8,10.2-24.1s85.4-250.9,85.4-250.9c0,0,13.4-2.3,20.9-20s-2.3-37.2-13.2-42.2l-15-78.7-41.3,35.5s41.9,46.3,42.9,47.4c1.1,1,12,4.2,16.5,15.5,4.4,11.3,2,25.6-11.9,31.7s-26.2-3.7-31.1-14.5c0,0-33.6-24.3-50.6-39.3-17-15.1-25.9-24.2-29-32.5s-1.1-17,8.5-28.9,34.7-41.9,55.3-60.1c20.6-18.2,31.3-25.3,49.8-32.7,18.6-7.4,32.9-10.1,32.9-10.1,0,0,16.9,10,38.5,8.5,21.5-1.5,33.7-9.3,33.7-9.3l39.3,9.6s54.8-13.5,101-40c.7-.4,1.5-.4,2.2,0,8,4.5,57.1,31.8,93.2,45.4,37.2,14,62.1,21.6,71.8,24.3,1,0,1.6.9,1.8,1.9ZM1003,352.3c4-39.3.2-88.1-.6-96.9,0-.8-.7-1.5-1.5-1.8-78.1-20-142.7-58.2-151.4-63.4-.6-.4-1.4-.4-2,0-8.3,4.7-67.5,36.6-159.4,51.4-1.4.2-2.5,1.4-2.6,2.8-1,11.3-5,61,1.6,108.5,7.4,53.9,26.7,117.5,69.8,167.2,42,48.6,81.3,69.6,93.4,74.5.5.2,1.1.2,1.6,0,54.3-28.2,93.4-73.8,115-115.6,21.7-42,31.7-83.2,36.1-126.6ZM772.8,700.4l-91.1-220.3-104.9,223.3c80.5-5.9,196-3,196-3Z"/>
  <path d="M983.7,269.1s5,54.2-1.2,97-17.7,77.9-35.5,108.3c-17.8,30.4-47.9,68.3-96.5,95.8-91.7-51.4-123.1-132.3-136-187.2-12.9-54.9-9.2-123.5-9.2-123.5,86.1-14.1,144-45.3,144-45.3,0,0,57.7,34.1,134.4,54.9ZM937.8,436.8c5.2-24.7-8.6-48.5-30.7-53.1-22.1-4.6-44.2,11.7-49.4,36.5-5.1,24.7,8.6,48.5,30.7,53.1,22.2,4.6,44.3-11.7,49.4-36.5ZM804.9,466.8l118-160.1-26-2.9-118.5,160.5,26.5,2.5ZM840.5,349.6c5.2-24.7-8.6-48.5-30.7-53.1-22.1-4.6-44.2,11.7-49.3,36.5-5.2,24.7,8.6,48.5,30.7,53.1,22,4.5,44.1-11.8,49.3-36.5Z"/>
  <path d="M673.1,67c36,0,64.3,29.8,64.3,65.4s-30.9,64.4-67,64.4-63.4-28.8-63.4-64.4c0-35.6,30-65.4,66.1-65.4Z"/>
  <path d="M616.5,197.9s-28,7.2-57.5,30.6c-29.5,23.4-73.1,72.9-79.4,85.9s-3.4,29.8,11,44.2c14.4,14.4,33.1,29.5,41.4,36.2s23.1,17.3,25.6,18.9c2.5,1.7,3.6,3,5.1,6.4s9.5,13,25,14.9l-81.3,235.9s-23.9.9-44.7-9.7c-20.8-10.6-34.9-27.3-47.3-34.7s-19.9-13.2-52.5-15.2c-32.7-2.1-58.8-13-78.5-32.7s-39.7-54-49-68.5-28.6-39.5-56.2-42.7c-27.7-3.1-50.8,5.4-65.3,12.8,0,0,12.8-41.8,42.7-71.6,29.9-29.9,64.4-47,118.9-58.8,54.6-11.9,79.8-18.5,120.1-40.3,40.3-21.7,86.1-55.7,111.2-71.1s61.9-36.8,110.7-40.5Z"/>
</svg>
