<svg xmlns="http://www.w3.org/2000/svg" viewBox="0 0 600 600" role="img" aria-labelledby="title">
  <title id="title">Akcija</title>
  <circle cx="300" cy="300" r="300" fill="#e30613"/>
  <path fill="#fff" d="M206.5 273.5c-26.6 0-48.2-8.8-64.8-26.4-16.4-17.8-24.6-41.1-24.6-69.8 0-28.6 8.2-51.6 24.6-69 16.6-17.6 38.2-26.4 64.8-26.4 26.8 0 48.4 8.8 64.8 26.4 16.6 17.4 24.9 40.4 24.9 69 0 28.7-8.3 52-24.9 69.8-16.4 17.6-38 26.4-64.8 26.4Zm0-55.9c9.6 0 17.2-3.6 22.8-10.8 5.8-7.4 8.7-17.2 8.7-29.5 0-12.2-2.9-21.9-8.7-29.1-5.6-7.4-13.2-11.1-22.8-11.1-9.4 0-17.1 3.7-23.1 11.1-5.8 7.2-8.7 16.9-8.7 29.1 0 12.3 2.9 22.1 8.7 29.5 6 7.2 13.7 10.8 23.1 10.8Zm193.8 300.5c-26.6 0-48.2-8.8-64.8-26.4-16.4-17.8-24.6-41.1-24.6-69.8 0-28.6 8.2-51.6 24.6-69 16.6-17.6 38.2-26.4 64.8-26.4 26.8 0 48.4 8.8 64.8 26.4 16.6 17.4 24.9 40.4 24.9 69 0 28.7-8.3 52-24.9 69.8-16.4 17.6-38 26.4-64.8 26.4Zm0-55.9c9.6 0 17.2-3.6 22.8-10.8 5.8-7.4 8.7-17.2 8.7-29.5 0-12.2-2.9-21.9-8.7-29.1-5.6-7.4-13.2-11.1-22.8-11.1-9.4 0-17.1 3.7-23.1 11.1-5.8 7.2-8.7 16.9-8.7 29.1 0 12.3 2.9 22.1 8.7 29.5 6 7.2 13.7 10.8 23.1 10.8ZM177 508 387.6 92h68.7L245.7 508H177Z"/>
</svg>
