<?xml version="1.0" encoding="UTF-8"?>
<svg version="1.1" id="DTZ2_Vector" xmlns="http://www.w3.org/2000/svg" x="0px" y="0px" viewBox="0 0 1536 1024" style="enable-background:new 0 0 1536 1024;" xml:space="preserve">
<style type="text/css">
	.st0{fill:#FF1215;}
</style>
<g>
		<g>
			<path class="st0" d="M245.4,333.9c0,0,227.2-30.2,307.8-38.9s523.1-59.8,523.1-59.8s38.7-4,50.6-4.9c11.9-0.9,39.2-1.3,39.2-1.3
				s-58.9,4.7-99.4,9.4c-40.5,4.7-46.4,5.4-46.4,5.4s-0.2,1.1,8.3,1.4c8.5,0.4,52.2-2.5,76-4.7s74-7.2,74-7.2s-41.8,2.5-44.8,2.5
				c-3.1,0,21.6-3.2,30.1-4.1c8.5-0.9,62.1-6.5,71.5-7.7s13.7-1.4,13.7-1.4s-21.6,3.2-26.8,5.2s-9.7,2.2-21.1,3.6
				c-11.3,1.4-29.7,4.5-68.6,8.5c0,0-90,7.2-103,8.1c-13,0.9-46.6,5.6-50,5.8c-3.4,0.2-8.5,2.5-1.4,1.8c7-0.7,49.5-4.5,65.5-6.3
				c16-1.8,83-6.7,90.2-7.4s-39.4,5-59.8,7s-47,4.5-47,4.5s-8.6,2.5,3.6,1.6c12.2-0.9,70.6-6.7,115.2-11.3
				c44.6-4.7,84.8-10.3,118.3-14.9c33.5-4.7,80.8-10.1,80.8-10.1s-0.5,1.4-5.8,3.2s-55.8,15.5-59.8,16.2s-1.4,2.3,0.2,2
				s1.6,0.9-0.4,1.4c-2,0.5-12.1,0.2-12.1,0.2s-0.2,1.8,4,2.2c0.4,0,0.8,0.1,1.2,0.1c0,0,40-2.3,43.6-2.3s4.6,0.7-3.5,1.9
				s-49,7.6-51.4,8.3s-4.1,2.7,2.7,2.7c6.8,0,41.9,0.4,42.8,0.4c0.9,0-5.6,2.9-13.5,4.5c-7.9,1.6-32.7,5.8-41.6,7.3
				c-8.9,1.5-13.2,3.6-14.3,3.8c-1.1,0.2-3,1.6,2.2,1.5c5.1-0.1,49.4-2.9,52.8-3c3.4-0.1-1.7,2.4-7.3,3.8c-5.6,1.3-20.1,4.4-32.7,6
				c-12.6,1.6-32.2,3.4-32.2,3.4s2,1.4,11.3,0.9c9.4-0.5,44.6,0.2,44.6,0.2s-4.3,2.2-11.7,4.3c-7.4,2.2-33.5,5.8-44.3,7.4
				c-10.8,1.6-13.1,3.1-13.1,3.1s9.7-1.6,24.8-2.2c15.1-0.5,19.8-0.9,19.8-0.9s0.9,2.2-7.2,3.8s-41,8.8-52.2,10.3
				c-11.2,1.4-30.2,6.3-30.2,6.3s1.6,0.7,9.4,0.2c7.7-0.5,62.5-4.5,73.1-4c10.6,0.5,22.7,3.6,22.7,3.6s-4.3,2.5-11,2.5
				c-6.7,0-13,1.3-13,1.3s-1.3,1.8,8.1,1.4c9.4-0.4,45.4-0.5,45.4-0.5s1.3,1-0.7,1.4c-2,0.4-14.1,3.4-17,4.4s-4.5,2.3-8.8,2.9
				s-8.5,1.4-8.5,1.4s0.4,0.7,7.5,0.7s52.7-1.6,52.7-1.6s-5.8,1.4-12.5,2.6c-6.7,1.2-21.2,3.5-27.4,4.1c-6.2,0.6-27.6,2.7-27.6,2.7
				l-5,1c0,0,25,0.5,50.2,1.3c25.2,0.8,59.2-3.2,60.4-3.1c0,0-52,11.9-87.4,15.7c0,0,28.2-1.4,38.5-1.4c0,0-22.7,6.1-31.4,7.9
				c-8.8,1.8-25.6,6-30.5,7.9c0,0,13-0.2,23.9,0c10.9,0.2,23.5,0.6,23.5,0.6s-42.4,10.2-52.8,12c-10.4,1.8-36.1,6.8-36.1,6.8
				l71.8,0.5c0,0-41.4,6.1-52.1,6.6c-10.7,0.5-35.3,1.6-35.3,1.6l83.8,2.2c0,0-28.3,7.2-34.2,9c-5.9,1.8-26.9,6.5-26.9,6.5h39.5
				c0,0-39,6.8-46.2,7.9c-7.2,1.1-52.7,9.4-52.7,9.4l146.8-1.8l-42.8,14.4c0,0,38.3-3.6,51.5-5.2c13.2-1.6,17.3-1.6,17.3-1.6
				s-25.1,7.8-34,8.9s-50.6,10-50.6,10s25.6-2.5,39.2-2.9c13.7-0.4,17.2,0.1,17.2,0.1s-29.8,5.9-45.8,8c-16,2.2-27.7,4.7-27.7,4.7
				l69.7,3.4c0,0-15.4,2.9-17.2,2.9c-1.8,0-1.2,2-4.8,2.9s-15,2.6-18.2,3.6c-3.2,1-2,2.4,1.1,2.6s16.9,2.8,16.9,2.8l-62,11.6
				l58.4-2.5c0,0-14.4,4.7-24.7,7c-10.3,2.3-23.4,4.9-28.1,5.3c-4.7,0.4-36.8,6.9-36.8,6.9l93.4-0.8c0,0-2,1.8-3.4,2
				c-1.3,0.2-16.9,0.6-17.9,1s-2.6,1.6-2.6,1.6l52.8,2.2l-22.7,6l-51.2,7.9l84.8-3.8c0,0-32.9,6.1-39.1,6.8
				c-6.1,0.7-24.7,7.4-30.1,7.6c-5.4,0.2-16.7,1.8-16.7,1.8l62.3,0.7l-49.3,13.5l37.8-1.6l-105.7,20.7l70.7-8.1l58.1-9.7l-57.4,11.7
				l-98.5,17.3l-1.4,0.4l0.3,1l98.5-5.5l-0.1,1l-134.8,8.5l-0.6,1.2l0.9,0.9l13.3-2l-6.5,3.5c0,0,14.4,0.5,31.3-1.1s57.4-8,70.4-8.8
				c13.1-0.7,13.1-0.7,13.1-0.7s-23.4,3.4-30.4,5c-7,1.7-47.3,5.6-47.3,5.6l75.6-1l-42.8,9.8l52.3-1.2l-11.4,2.9c0,0-5.6,3.1-12.5,4
				c-6.8,0.8-46.8,10.1-46.8,10.1l63.7-4.1l-24.5,4.1c0,0-17.4,4.6-26.4,6.4c-9,1.8-29.8,2.8-29.8,2.8l38,1.1l-28.7,5.8l55.7-5.4
				l-33.7,7.6l-31.9,6.1l-7.3,1.3l52.8-3l-28.8,4.7l-11.4-1.1l-41.6,5l-53.6,9.3l39.2-3.4l61.2-9.4l-61.4,11.9l-45.7,5.8l-43.8,8.4
				l15.5-0.8c0,0,58.6-6.1,64.8-6.4s7.8-0.4,7.8-0.4l-36.7,5l-86.8,13.4l-17.2,2.3h11.3c0,0,73.9-8.4,89.2-9.8s70.1-6.4,70.1-6.4
				l86.4-9.7l-96.3,7.2l65.7-8.8l76.7-4.7l-49.3,9.5c0,0-45.9,9.5-94.9,15.5s-232,28-232,28l-313.6,38.6l-230.2,29.2
				c0,0-35.2,3.8-45.3,3.1c-3.4-0.4-2.8-0.5-2.8-0.5l20.9-4.8l-32,1.8l42.8-16.3l82.8-13.7l-141.5,7.3l36-7.3l12.4-9.6l-34.6,1
				l16.9-6.4l-27.4-1.7l23.5-5.5l-59.2-3.5l1.3-1.3l77-8.2l-64.7,2.6l40.1-10.1l-74.2,4.4l46-12.7c0,0,37.1-9,50.9-10.8
				c13.8-1.8,13.4-2.4,13.4-2.4l-62.9-2.6l39-13.1l12.6-2.4l-78.5,0.8l14.6-4.7l-35.6-1.7l41.5-8l-60.3-2.6c0,0,8.6-3.1,8.6-4.3
				s-3.1-3.2-8.6-2.8c-5.5,0.5-6,0.5-6,0.5l25.3-5.4l43.3-4.2l-36.4,1.1l65.5-12l-109.6,6.5l69.8-17.2l-10.4-0.4l19.4-4.6l0.1-2.3
				h1.9l0.6,1.3l5.2-1.7l-38.9-3.7l25-6.7l-20.5,0.6l41.4-8.5l-46.4-0.7l7.1-3.1l19-3.6l16.1,0.2l2.8-1.8l-25.2,0.5l5.9-2.4
				l50.6-13.2L181,559.5l67.1-14.6h-21.4l91.3-16.7l-3.4-0.8l-88.3,7.9c0,0-25.3,2.4-27.6,2.4s34.2-6.4,34.2-6.4s0.4-1.9-3-2.3
				s-14.4-3.4-14.4-3.4l27.2-2.2c0,0,3.6-1.6-1.1-2.2c-4.7-0.6-31.2-1.2-31.2-1.2l30.2-4.6l10.6-2.8l-64-2c0,0,5.8-5.9,18.8-8.8
				s9.4-2.2,9.4-2.2l-23.3-1.3l23.8-3.2l14.4-4l-34-1c0,0,3.6-4.4,19.1-7.8c15.5-3.4,17.8-4.6,17.8-4.6s-17.3-1.6-19.1-2.4
				c-1.8-0.8-1.9-2.8,1-3.6c2.9-0.8,20.2-4.1,20.8-4.9c0.6-0.8-6.4-1.8-10.3-3.1c-4-1.3-16.9-5.2-16.9-5.2l39.7-6.5l13.7-3.7
				l-44.3-3l-3-0.8l16.7-1c0,0-26.8-3.7-30.1-4.6s-0.8-2.3,4.2-3c5-0.7,15.5-5.2,15.5-5.2l-41.8-0.6l63.6-10.9
				c0,0,25.3-7.7,34.3-7.6s11.2-1.1,11.2-1.1l-73.7-0.1l30.8-5.3c0,0-28.1-1.4-29.5-2.2c-1.4-0.7-0.5-2-3.5-3.4s-3.6-1.6-3.6-1.6
				s4.6-3.2,7.4-4.2c2.9-1,5-2.5,7.7-3.6c2.6-1.1,3.8-2,3.8-2s-29.3-3.6-33.4-5.2s-4.1-1.6-4.1-1.6l33.6-2.2c0,0,1.9-1.8,1.9-2.9
				c0-1.1-26.4-3.1-26.4-3.1l46.2-11l-93.2-1.6l83.5-17.9l51.5-8l-45.7-0.1L245.4,333.9z"/>
			<path fill="#FFFFFF" d="M443.2,393.9c-1.6-16.2-11.6-27-25.8-28.9c-18.4-2.2-60.7,2.9-60.7,2.9l-2.2,128.7c0,0,76.5,4.7,86.8-40.1
				c0.2-0.8,0.3-1.6,0.3-2.4C442.1,446.8,444.6,408.5,443.2,393.9z M414.6,434.3c-0.1,7.9-0.1,16.8-4,21.8
				c-5.9,8.6-25.2,9.7-25.2,9.7l0.8-75.8c0,0,4.4-1.9,12.8-2.2c10.6,0,13.7,8.2,15,11.6C415.4,403,414.8,426.4,414.6,434.3z"/>
			<path fill="#FFFFFF" d="M544.2,374.2c-2.4-10.6-12.2-28.4-48.1-23.6c-18.5,2.9-29.3,10-36,24.6c-3.3,7.2-5,15-5.3,22.9
				c-0.6,18.1-0.6,50.8-0.3,55.6c0.4,5.8,4.7,25,28.6,28.3c23.9,3.2,50.9-7,58-28.8C548.2,431.4,546.6,384.8,544.2,374.2z
				 M514.4,396.2c0.1,7.4-0.2,14.7-0.3,22.1c-0.1,4.8-0.1,9.7-0.3,14.5c-0.1,2.5,0,5.2-0.3,7.8c-0.6,4.1-4.6,15.2-15,15.1
				s-12.5-7.3-12.7-11.9c-0.2-3.8-0.1-36.6,0-47.9c0-3.6,0.7-7.1,2.1-10.4c2.4-5.6,6-8.3,11.1-9.3c5.1-1,10.2,0.4,13.2,4.9
				C515,385.5,514.4,391.2,514.4,396.2z"/>
			<path fill="#FFFFFF" d="M558.5,345.8l-2,128.3l29.9-3.6v-36.4c0-0.5,0.1-0.9,0.4-1.3l7.9-11.4c0.3-0.5,1-0.4,1.2,0.1l22.3,45.9l35.5-2.9
				l-37.4-71.5c-1-2-0.9-4.4,0.3-6.3l32.9-50.9l-32.2,3.1L589,388c-0.4,0.6-1.4,0.4-1.4-0.4l0.2-44.4L558.5,345.8z"/>
			<path fill="#FFFFFF" d="M685.4,332.8v23.5c0,0.5,0.4,0.8,0.8,0.8l24.4-2c0.5,0,0.8,0.3,0.8,0.8l-3,101.9c0,0.5,0.4,0.8,0.9,0.8l29.9-3.4
				c0.4,0,0.7-0.4,0.7-0.7l2.1-101.6c0-0.4,0.3-0.7,0.7-0.8l25.3-2.5v-26.3l-82,8.7C685.7,332,685.4,332.4,685.4,332.8z"/>
			<path fill="#FFFFFF" d="M842.5,392.4c0,0,19-9.5,19.3-34.5s-6.7-40-31.9-40.4l-52.9,4.1l-3.1,129.8l29.5-2.6v-47.5l12.5-0.7l16.9,45.1l31-4
				L842.5,392.4z M827.6,369.6c-3.5,3.6-8.7,5.2-13.5,6.1c-0.5,0.1-8.2,1-8.2,0.7v-32.6c0.9-0.1,1.7-0.2,2.6-0.3
				c5-0.6,11-1.5,15.9,0.1c3.5,1.2,5.1,4.1,5.9,7.5c0.5,2.5,0.6,5,0.8,7.5C831.4,362.6,830.5,366.6,827.6,369.6z"/>
			<path fill="#FFFFFF" d="M940.2,304.6l-39.8,4.1l-34.6,132.7l31-3.1l5.4-24.7l29-2.2l4.2,23.3l32.4-3.2L940.2,304.6z M908.2,385.9l10.8-51.1
				l8.5,49.7L908.2,385.9z"/>
			<path fill="#FFFFFF" d="M969.9,405.2l-1.3,26.5c0,0,25.2,2.2,39.1-7.4c13.9-9.5,16.6-17.8,18.7-49.3c2.2-31.5,3.6-80.8,3.6-80.8l-30.7,2.5
				c0,0-2.8,89.3-3.5,95.2C995.1,397.8,994.8,407,969.9,405.2z"/>
			<path fill="#FFFFFF" d="M1042.7,291.9c0,0-3.4,90.7-2,104.4c1.4,13.7,10.9,27.3,39,25.4c28.1-1.9,42.7-16.1,45.4-42.7s3.4-94.8,3.4-94.8
				l-29.8,2.6c0,0-3.1,85.9-3.4,91.7c-0.2,5.8-2.9,14.9-13.2,15.8c-10.3,1-10.8-9.1-10.6-21.4s2.6-84,2.6-84L1042.7,291.9z"/>
			<polygon fill="#FFFFFF" points="379,567.4 435.4,561 374.2,681.2 374.2,715.7 482.3,703.1 482.3,660.2 427.1,667.1 482.3,552.2 483.2,520.2 
				379,531.2 			"/>
			<path fill="#FFFFFF" d="M584.4,509.7l-54.1,5.9L486.6,702l43.7-4.6l7-37.7c0,0,37.4-2.9,38.2-3.1c0.7-0.2,7.2,35,7.2,35l43-4.8L584.4,509.7z
				 M541.8,622.8l14.3-68.2l12.6,65L541.8,622.8z"/>
			<polygon fill="#FFFFFF" points="635.4,503.3 635,686.2 730.2,675.4 728.6,634.1 676.5,639.4 678.2,499.2 			"/>
			<polygon fill="#FFFFFF" points="740.3,491.8 741.3,673.2 783.5,669.2 783.5,487.5 			"/>
			<polygon fill="#FFFFFF" points="801.3,485.1 800.1,667.5 843.8,662.2 843.8,585.6 877.1,582.5 878.1,659.1 919.6,654 919.6,472.1 877.4,477.2 
				876.6,543.2 843.3,547 843.5,481 			"/>
			<polygon fill="#FFFFFF" points="941,470.4 938.6,651.4 1035.3,640.1 1035.3,602.9 981.8,607.7 982,571.7 1027.1,566.2 1027.1,528.3 982,533.8 
				982.5,501.2 1035.3,495.9 1035.3,459.6 			"/>
			<polygon fill="#FFFFFF" points="1055,456.8 1055,582 1086.9,579.4 1098.9,452.4 			"/>
			<path fill="#FFFFFF" d="M1067.6,593.5c1.2-0.4,2.4-0.7,3.6-0.8c7.1-0.8,23.9-1.6,25.4,16.7c1.6,19.9-12,28-24.5,29.3s-22.1-6.6-21.1-24.1
				C1051.9,601.4,1061.6,595.7,1067.6,593.5z"/>
		</g>
	</g>
</svg>
